<?xml version="1.0" encoding="utf-8"?>
<!-- Generator: Adobe Illustrator 22.0.0, SVG Export Plug-In . SVG Version: 6.00 Build 0)  -->
<svg version="1.1" id="Слой_1" xmlns="http://www.w3.org/2000/svg" xmlns:xlink="http://www.w3.org/1999/xlink" x="0px" y="0px"
	 viewBox="0 0 25 25" style="enable-background:new 0 0 25 25;" xml:space="preserve" width="20" height="20">
<style type="text/css">
	.st0{fill:#FFFFFF;}
	.st1{fill:#CAD3DC;}
</style>
<path class="st0" d="M15.5,17.6H10c-1.8-0.1-3.2-1.6-3.1-3.4v-3.4C6.9,9.1,8.2,7.5,10,7.5h5.4c1.8,0.1,3.2,1.6,3.1,3.4v3.4
	C18.7,16,17.3,17.5,15.5,17.6z M17,10.8c0-0.9-0.6-1.7-1.6-1.7H10c-0.9,0.1-1.6,0.8-1.6,1.7v3.5c0,0.9,0.6,1.7,1.6,1.7h5.4
	c0.9-0.1,1.6-0.8,1.6-1.7V10.8z M11.6,10.6l3.1,2l-3.1,2V10.6z"/>
<g>
	<path class="st1" d="M15.5,9h-5.4c-0.9,0.1-1.6,0.8-1.6,1.7v3.5c0,0.9,0.6,1.7,1.6,1.7h5.4c0.9-0.1,1.6-0.8,1.6-1.7v-3.5
		C17.1,9.9,16.4,9.1,15.5,9z M11.6,14.5v-3.9l3.1,2L11.6,14.5z"/>
	<path class="st1" d="M18.3,0.5h-11C3.8,0.5,1,3.3,1,6.8v11c0,3.5,2.8,6.3,6.3,6.3h11c3.5,0,6.3-2.8,6.3-6.3v-11
		C24.6,3.4,21.8,0.5,18.3,0.5z M18.6,14.2c0.1,1.8-1.3,3.3-3.1,3.4h-5.4C8.3,17.5,6.9,16,7,14.2v-3.4c-0.1-1.8,1.3-3.3,3.1-3.4h5.4
		c1.8,0.1,3.2,1.6,3.1,3.4V14.2z"/>
</g>
</svg>
