<?xml version="1.0" encoding="utf-8"?>
<!-- Generator: Adobe Illustrator 17.1.0, SVG Export Plug-In . SVG Version: 6.00 Build 0)  -->
<!DOCTYPE svg PUBLIC "-//W3C//DTD SVG 1.1//EN" "http://www.w3.org/Graphics/SVG/1.1/DTD/svg11.dtd">
<svg version="1.1" id="Layer_1" xmlns="http://www.w3.org/2000/svg" xmlns:xlink="http://www.w3.org/1999/xlink" x="0px" y="0px"
	 viewBox="0 0 23.6 23.6" enable-background="new 0 0 23.6 23.6" xml:space="preserve" width="20" height="20">
<g>
	<defs>
		<rect id="SVGID_1_" y="0" width="23.6" height="23.6"/>
	</defs>
	<clipPath id="SVGID_2_">
		<use xlink:href="#SVGID_1_"  overflow="visible"/>
	</clipPath>
	<path clip-path="url(#SVGID_2_)" fill-rule="evenodd" clip-rule="evenodd" fill="#d0d7db" d="M18.9,23.6h-4.7v-7.9h3.7l0.5-3.2
		h-4.2v-4c0.1-0.5,0.5-0.8,1-0.8c0,0,0.1,0,0.1,0h2.1l0.5-3.1c-1.3-0.1-2.5-0.1-3.8,0c-0.9,0.1-1.7,0.6-2.2,1.2
		C11.2,6.7,11,7.6,11,8.5v4.1l-3.1,0v3.2l3.1,0v7.9H4.7c-2.6,0-4.7-2.1-4.7-4.7V4.7C0,2.1,2.1,0,4.7,0h14.2c2.6,0,4.7,2.1,4.7,4.7
		v14.2C23.6,21.5,21.5,23.6,18.9,23.6"/>
</g>
</svg>
