<?xml version="1.0" encoding="utf-8"?>
<!-- Generator: Adobe Illustrator 22.0.0, SVG Export Plug-In . SVG Version: 6.00 Build 0)  -->
<svg version="1.1" id="Слой_1" xmlns="http://www.w3.org/2000/svg" xmlns:xlink="http://www.w3.org/1999/xlink" x="0px" y="0px"
	 viewBox="0 0 13.1 11" style="enable-background:new 0 0 13.1 11;" xml:space="preserve" width="20" height="20">
<style type="text/css">
	.st0{fill:#FFFFFF;}
</style>
<g id="Twitter-2">
	<path id="Твиттер_copy_21-2" class="st0" d="M6.3,3.4c0,0,0.2-3.3,2.6-3.4c1.9,0,2.3,0.8,2.3,0.8c0.6-0.2,1.1-0.5,1.6-0.9
		c0,0.6-0.3,1.1-0.6,1.5c0.4,0,0.7-0.1,1-0.4c-0.1,0.5-0.5,1-1,1.2c0.1,2.1-0.4,4.2-1.6,5.9C8.7,10.8,5.6,11,3.9,11
		C2.5,10.9,1.2,10.5,0,9.9c0,0,2.6,0,3.7-0.8C2.8,8.4,2,7.7,1.2,6.9c0.3,0,0.6,0,0.9-0.1C1.3,6,0.6,5,0,3.9C0.3,4,0.7,4,1,4
		c0,0-1.5-2.4-0.8-4C0.2,0,2.7,3.2,6.3,3.4z"/>
</g>
</svg>
