<?xml version="1.0" encoding="utf-8"?>
<!-- Generator: Adobe Illustrator 17.1.0, SVG Export Plug-In . SVG Version: 6.00 Build 0)  -->
<!DOCTYPE svg PUBLIC "-//W3C//DTD SVG 1.1//EN" "http://www.w3.org/Graphics/SVG/1.1/DTD/svg11.dtd">
<svg version="1.1" id="Layer_1" xmlns="http://www.w3.org/2000/svg" xmlns:xlink="http://www.w3.org/1999/xlink" x="0px" y="0px"
	 viewBox="0 0 48 44" enable-background="new 0 0 48 44" xml:space="preserve">
<g>
	<defs>
		<rect id="SVGID_1_" width="48" height="44"/>
	</defs>
	<clipPath id="SVGID_2_">
		<use xlink:href="#SVGID_1_"  overflow="visible"/>
	</clipPath>
	
		<path clip-path="url(#SVGID_2_)" fill="none" stroke="#000000" stroke-width="2" stroke-linecap="round" stroke-linejoin="round" stroke-miterlimit="10" d="
		M45.5,9H2.5C1.7,9,1,9.7,1,10.6v30.9C1,42.3,1.7,43,2.5,43h42.9c0.8,0,1.5-0.7,1.5-1.6V10.6C47,9.7,46.3,9,45.5,9z"/>
	
		<line clip-path="url(#SVGID_2_)" fill="none" stroke="#000000" stroke-width="2" stroke-linecap="round" stroke-linejoin="round" stroke-miterlimit="10" x1="20.9" y1="22" x2="1" y2="22"/>
	
		<line clip-path="url(#SVGID_2_)" fill="none" stroke="#000000" stroke-width="2" stroke-linecap="round" stroke-linejoin="round" stroke-miterlimit="10" x1="47" y1="22" x2="27.1" y2="22"/>
	
		<path clip-path="url(#SVGID_2_)" fill="none" stroke="#000000" stroke-width="2" stroke-linecap="round" stroke-linejoin="round" stroke-miterlimit="10" d="
		M16,9V4.2C16,2.4,17.4,1,19.2,1h9.6C30.6,1,32,2.4,32,4.2V9"/>
	
		<path clip-path="url(#SVGID_2_)" fill="none" stroke="#000000" stroke-width="2" stroke-linecap="round" stroke-linejoin="round" stroke-miterlimit="10" d="
		M27,20.9v4.3c0,1.6-1.4,2.9-3,2.9c-0.8,0-1.6-0.3-2.1-0.8c-0.5-0.5-0.9-1.2-0.9-2v-4.3c0-1.6,1.3-2.9,3-2.9c0.8,0,1.6,0.3,2.1,0.8
		C26.7,19.4,27,20.1,27,20.9z"/>
</g>
</svg>
