<?xml version="1.0" encoding="utf-8"?>
<!-- Generator: Adobe Illustrator 23.0.3, SVG Export Plug-In . SVG Version: 6.00 Build 0)  -->
<svg version="1.1" id="Слой_1" xmlns="http://www.w3.org/2000/svg" xmlns:xlink="http://www.w3.org/1999/xlink" x="0px" y="0px"
	 viewBox="0 0 25 25" style="enable-background:new 0 0 25 25;" xml:space="preserve">
<style type="text/css">
	.st0{fill-rule:evenodd;clip-rule:evenodd;fill:#6695BD;}
</style>
<path class="st0" d="M18.2,0.5h-11c-3.5,0-6.3,2.8-6.3,6.3v11c0,3.5,2.8,6.3,6.3,6.3h11c3.5,0,6.3-2.8,6.3-6.3v-11
	C24.5,3.4,21.7,0.5,18.2,0.5z M17.6,13.8c0.2,0.2,1.7,1.9,1.8,2c0.1,0.2,0.2,0.3,0.3,0.5c-0.1,0.3-0.4,0.6-0.7,0.6c-0.6,0-2,0-2.2,0
	c-0.3-0.1-0.6-0.3-0.9-0.5c-0.2-0.2-1-1.1-1.1-1.2c-0.1-0.1-0.2-0.1-0.3-0.1s-0.4,0-0.4,0.5c0,0.4,0,0.7-0.2,1.1
	c-0.2,0.2-0.4,0.3-0.7,0.3c-0.9,0.1-1.9-0.2-2.7-0.7C9,15.4,7.4,13,6.6,11.4c-0.5-0.8-0.7-1.6-0.8-2.5c0-0.2,0-0.3,0.2-0.3
	s2.2,0,2.4,0c0.1,0.1,0.2,0.2,0.3,0.3s0.6,1.7,0.8,2s1,1.8,1.4,1.8c0.3-0.1,0.5-0.3,0.4-0.6c0-0.4,0-1.8,0-2
	c-0.2-0.4-0.5-0.7-0.9-0.9c0.2-0.3,0.5-0.4,0.9-0.5c0.6,0,2,0,2.3,0C13.8,8.6,14,8.9,14,9.3v3c0,0.2,0.1,0.3,0.3,0.3h0.1
	c0.3,0,0.9-2.6,1.2-3.2c0.1-0.3,0.4-0.6,0.7-0.8c0.1-0.1,0.2-0.1,0.3-0.1h2.7c0.2,0,0.4,0.3,0.4,0.5c0,0.1,0,0.1-0.1,0.2
	c-0.2,0.5-2,3.4-2.1,3.5c-0.1,0.2-0.2,0.3-0.2,0.5S17.4,13.6,17.6,13.8z"/>
</svg>
