<?xml version="1.0" encoding="utf-8"?>
<!-- Generator: Adobe Illustrator 17.1.0, SVG Export Plug-In . SVG Version: 6.00 Build 0)  -->
<!DOCTYPE svg PUBLIC "-//W3C//DTD SVG 1.1//EN" "http://www.w3.org/Graphics/SVG/1.1/DTD/svg11.dtd">
<svg version="1.1" id="Layer_1" xmlns="http://www.w3.org/2000/svg" xmlns:xlink="http://www.w3.org/1999/xlink" x="0px" y="0px"
	 viewBox="0 0 15.1 9" enable-background="new 0 0 15.1 9" xml:space="preserve">
<g>
	<defs>
		<rect id="SVGID_1_" width="15.1" height="9"/>
	</defs>
	<clipPath id="SVGID_2_">
		<use xlink:href="#SVGID_1_"  overflow="visible"/>
	</clipPath>
	<path clip-path="url(#SVGID_2_)" fill-rule="evenodd" clip-rule="evenodd" fill="#FFFFFF" d="M9,0.8V4c0,0.2,0.1,0.3,0.3,0.4
		c0,0,0.1,0,0.1,0c0.3,0,1-2.8,1.3-3.4c0.2-0.3,0.4-0.6,0.7-0.8C11.5,0.1,11.7,0,11.8,0h2.9c0.3,0,0.4,0.3,0.4,0.5
		c0,0.1,0,0.1-0.1,0.2c-0.2,0.5-2.2,3.6-2.3,3.7c-0.1,0.2-0.2,0.3-0.2,0.5c0,0.2,0.1,0.5,0.3,0.6c0.2,0.2,1.8,2,2,2.2
		C14.9,8,15,8.2,15,8.4C15,8.8,14.6,9,14.2,9h-2.3c-0.4-0.1-0.7-0.3-1-0.6c-0.2-0.2-1.1-1.2-1.2-1.3C9.7,7,9.5,7,9.4,7
		C9.3,7,9,7,9,7.6c0,0.4,0,0.8-0.2,1.1C8.6,8.9,8.3,9,8,9C7,9.1,6,8.8,5.1,8.3C3.5,7.3,1.7,4.7,0.9,3C0.4,2.2,0.1,1.3,0,0.3
		C0.1,0.1,0.1,0,0.2,0h2.6C3,0.1,3.1,0.2,3.2,0.3C3.3,0.4,3.8,2.1,4,2.4c0.2,0.3,1,1.9,1.5,1.9C5.8,4.3,6,4,6,3.7V1.5
		c-0.2-0.4-0.5-0.8-1-1C5.2,0.2,5.6,0,5.9,0C6.5,0,8,0,8.4,0C8.7,0.1,9,0.4,9,0.8"/>
</g>
</svg>
