<?xml version="1.0" encoding="utf-8"?>
<!-- Generator: Adobe Illustrator 23.0.3, SVG Export Plug-In . SVG Version: 6.00 Build 0)  -->
<svg version="1.1" id="Слой_1" xmlns="http://www.w3.org/2000/svg" xmlns:xlink="http://www.w3.org/1999/xlink" x="0px" y="0px"
	 viewBox="0 0 25 25" style="enable-background:new 0 0 25 25;" xml:space="preserve">
<style type="text/css">
	.st0{fill-rule:evenodd;clip-rule:evenodd;fill:#3B5998;}
</style>
<g id="Facebook">
	<path id="facebook_copy_27" class="st0" d="M19.3,24.1h-4.7v-7.9h3.7l0.5-3.2h-4.2c0,0,0-3.6,0-4c0.1-0.5,0.5-0.8,1-0.8h0.1
		c0.7,0,2.1,0,2.1,0l0.5-3.1C17,5,15.8,5,14.5,5.1c-0.9,0.1-1.7,0.6-2.2,1.2c-0.5,0.7-0.8,1.6-0.8,2.5v4.1H8.4v3.2h3.1V24H5.1
		c-2.6,0-4.7-2.1-4.7-4.7V5.2c0-2.6,2.1-4.7,4.7-4.7h14.2c2.6,0,4.7,2.1,4.7,4.7v14.2C24,22,21.9,24.1,19.3,24.1z"/>
</g>
</svg>
