<?xml version="1.0" encoding="utf-8"?>
<!-- Generator: Adobe Illustrator 22.0.0, SVG Export Plug-In . SVG Version: 6.00 Build 0)  -->
<svg version="1.1" id="Слой_1" xmlns="http://www.w3.org/2000/svg" xmlns:xlink="http://www.w3.org/1999/xlink" x="0px" y="0px"
	 viewBox="0 0 15 13" style="enable-background:new 0 0 15 13;" xml:space="preserve" width="20" height="20">
<style type="text/css">
	.st0{fill:#FFFFFF;}
</style>
<g id="youtube-2">
	<path class="st0" d="M11,13H4c-2.3-0.1-4.1-2-4-4.3V4.3C-0.1,2,1.7,0.1,4,0h7c2.3,0.1,4.1,2,4,4.3v4.3C15.1,11,13.3,12.9,11,13z
		 M13,4.3c0.1-1.2-0.8-2.2-2-2.2H4C2.8,2.1,1.9,3.1,2,4.3v4.5C1.9,9.9,2.8,10.9,4,11h7c1.2-0.1,2.1-1.1,2-2.2V4.3z M6,4l4,2.5L6,9V4
		z"/>
</g>
</svg>
