<?xml version="1.0" encoding="utf-8"?>
<!-- Generator: Adobe Illustrator 23.0.3, SVG Export Plug-In . SVG Version: 6.00 Build 0)  -->
<svg version="1.1" id="Слой_1" xmlns="http://www.w3.org/2000/svg" xmlns:xlink="http://www.w3.org/1999/xlink" x="0px" y="0px"
	 viewBox="0 0 25 25" style="enable-background:new 0 0 25 25;" xml:space="preserve">
<style type="text/css">
	.st0{clip-path:url(#SVGID_2_);fill:url(#Rounded_Rectangle_3_copy_8_2_);}
</style>
<g>
	<defs>
		<path id="SVGID_1_" d="M12.6,8.4c-2.1,0-3.9,1.7-3.9,3.9c0,2.1,1.7,3.9,3.9,3.9c2.1,0,3.9-1.7,3.9-3.9
			C16.5,10.2,14.8,8.4,12.6,8.4z M18.1,0.5h-11c-3.5,0-6.3,2.8-6.3,6.3v11c0,3.5,2.8,6.3,6.3,6.3h11c3.5,0,6.3-2.8,6.3-6.3v-11
			C24.4,3.3,21.6,0.5,18.1,0.5z M12.6,18.6c-3.5,0-6.3-2.8-6.3-6.3C6.3,8.9,9.2,6,12.6,6c3.5,0,6.3,2.8,6.3,6.3S16.1,18.6,12.6,18.6
			z M20.1,7c-0.9,0-1.7-0.8-1.7-1.7c0-0.9,0.8-1.7,1.7-1.7c0.9,0,1.7,0.8,1.7,1.7C21.8,6.2,21,7,20.1,7z"/>
	</defs>
	<clipPath id="SVGID_2_">
		<use xlink:href="#SVGID_1_"  style="overflow:visible;"/>
	</clipPath>
	
		<linearGradient id="Rounded_Rectangle_3_copy_8_2_" gradientUnits="userSpaceOnUse" x1="18.9011" y1="25.4391" x2="6.6989" y2="1.0391" gradientTransform="matrix(1 0 0 -1 0 26)">
		<stop  offset="0" style="stop-color:#9E42B4"/>
		<stop  offset="6.700000e-02" style="stop-color:#9E42B4"/>
		<stop  offset="0.473" style="stop-color:#E5566F"/>
		<stop  offset="1" style="stop-color:#FDC76D"/>
	</linearGradient>
	<rect id="Rounded_Rectangle_3_copy_8_1_" x="0.6" y="0.6" class="st0" width="24.4" height="24.4"/>
</g>
</svg>
