<?xml version="1.0" encoding="utf-8"?>
<!-- Generator: Adobe Illustrator 17.1.0, SVG Export Plug-In . SVG Version: 6.00 Build 0)  -->
<!DOCTYPE svg PUBLIC "-//W3C//DTD SVG 1.1//EN" "http://www.w3.org/Graphics/SVG/1.1/DTD/svg11.dtd">
<svg version="1.1" id="Layer_1" xmlns="http://www.w3.org/2000/svg" xmlns:xlink="http://www.w3.org/1999/xlink" x="0px" y="0px"
	 viewBox="0 0 23.6 23.6" enable-background="new 0 0 23.6 23.6" xml:space="preserve" width="20" height="20">
<g>
	<defs>
		<rect id="SVGID_1_" width="23.6" height="23.6"/>
	</defs>
	<clipPath id="SVGID_2_">
		<use xlink:href="#SVGID_1_"  overflow="visible"/>
	</clipPath>
	<path clip-path="url(#SVGID_2_)" fill-rule="evenodd" clip-rule="evenodd" fill="#d0d7db" d="M17.3,0l-11,0C2.8,0,0,2.8,0,6.3l0,11
		c0,3.5,2.8,6.3,6.3,6.3l11,0c3.5,0,6.3-2.8,6.3-6.3l0-11C23.6,2.8,20.8,0,17.3,0 M16.7,13.3c0.2,0.2,1.7,1.9,1.8,2
		c0.1,0.2,0.2,0.3,0.3,0.5c-0.1,0.3-0.4,0.6-0.7,0.6h-2.2c-0.3-0.1-0.6-0.3-0.9-0.5c-0.2-0.2-1-1.1-1.1-1.2
		c-0.1-0.1-0.2-0.1-0.3-0.1c-0.1,0-0.4,0-0.4,0.5c0,0.4,0,0.7-0.2,1.1c-0.2,0.2-0.4,0.3-0.7,0.3c-0.9,0.1-1.9-0.2-2.7-0.7
		c-1.5-0.9-3.1-3.3-3.9-4.9c-0.5-0.8-0.7-1.6-0.8-2.5C4.9,8.1,4.9,8,5,8h2.4c0.1,0.1,0.2,0.2,0.3,0.3c0.1,0.1,0.6,1.7,0.8,2
		c0.2,0.3,1,1.8,1.4,1.8c0.3-0.1,0.5-0.3,0.4-0.7v-2C10.2,9,9.9,8.7,9.5,8.5C9.7,8.2,10,8.1,10.3,8c0.6,0,2,0,2.3,0
		c0.3,0.1,0.6,0.3,0.6,0.7v3c0,0.2,0.1,0.3,0.3,0.3c0,0,0.1,0,0.1,0c0.3,0,0.9-2.6,1.2-3.2c0.1-0.3,0.4-0.6,0.7-0.8
		C15.5,8.1,15.6,8,15.8,8h2.7c0.2,0,0.4,0.3,0.4,0.5c0,0.1,0,0.1-0.1,0.2c-0.2,0.5-2,3.4-2.1,3.5c-0.1,0.2-0.2,0.3-0.2,0.5
		C16.4,12.9,16.5,13.1,16.7,13.3"/>
</g>
</svg>
