<?xml version="1.0" encoding="utf-8"?>
<!-- Generator: Adobe Illustrator 17.1.0, SVG Export Plug-In . SVG Version: 6.00 Build 0)  -->
<!DOCTYPE svg PUBLIC "-//W3C//DTD SVG 1.1//EN" "http://www.w3.org/Graphics/SVG/1.1/DTD/svg11.dtd">
<svg version="1.1" id="Layer_1" xmlns="http://www.w3.org/2000/svg" xmlns:xlink="http://www.w3.org/1999/xlink" x="0px" y="0px"
	 viewBox="0 0 18 24" enable-background="new 0 0 18 24" xml:space="preserve" width="18" height="24">
<g>
	<defs>
		<rect id="SVGID_1_" width="18" height="24"/>
	</defs>
	<clipPath id="SVGID_2_">
		<use xlink:href="#SVGID_1_"  overflow="visible"/>
	</clipPath>
	
		<path clip-path="url(#SVGID_2_)" fill="none" stroke="#0081db" stroke-width="2" stroke-linecap="round" stroke-linejoin="round" stroke-miterlimit="10" d="
		M17,8v14c0,0.5-0.4,1-1,1H2c-0.5,0-1-0.5-1-1V2c0-0.5,0.5-1,1-1h8"/>
	
		<polygon clip-path="url(#SVGID_2_)" fill="none" stroke="#0081db" stroke-width="2" stroke-linecap="round" stroke-linejoin="round" stroke-miterlimit="10" points="
		17,8 10,8 10,1 	"/>
	
		<path clip-path="url(#SVGID_2_)" fill="none" stroke="#0081db" stroke-width="2" stroke-linecap="round" stroke-linejoin="round" stroke-miterlimit="10" d="
		M5,14c0.6-0.7,1.6-1.2,2.6-1.2c2,0,3.6,1.6,3.6,3.6c0,1-0.5,2-1.2,2.6"/>
	
		<line clip-path="url(#SVGID_2_)" fill="none" stroke="#0081db" stroke-width="2" stroke-linecap="round" stroke-linejoin="round" stroke-miterlimit="10" x1="7" y1="11" x2="13" y2="17"/>
</g>
</svg>
