<?xml version="1.0" encoding="utf-8"?>
<!-- Generator: Adobe Illustrator 22.0.0, SVG Export Plug-In . SVG Version: 6.00 Build 0)  -->
<svg version="1.1" id="Слой_1" xmlns="http://www.w3.org/2000/svg" xmlns:xlink="http://www.w3.org/1999/xlink" x="0px" y="0px"
	 viewBox="0 0 25 25" style="enable-background:new 0 0 25 25;" xml:space="preserve" width="20" height="20">
<style type="text/css">
	.st0{fill:#FFFFFF;}
	.st1{fill:#1DA1F2;}
</style>
<path id="Твиттер_copy_21-3" class="st0" d="M12.9,10.5c0,0,0.2-3,2.3-3c1.7,0,2,0.8,2,0.8c0.5-0.2,1-0.4,1.4-0.8
	c0,0.5-0.2,1-0.6,1.4c0.3,0,0.6-0.1,0.9-0.3c-0.1,0.4-0.4,0.8-0.9,1c0.1,1.9-0.4,3.7-1.4,5.3c-1.5,2.2-4.3,2.4-5.8,2.4
	c-1.2-0.1-2.4-0.4-3.5-1c0,0,2.3,0,3.3-0.7C9.8,15,9,14.4,8.3,13.7c0.3,0,0.6,0,0.8-0.1C8.5,12.8,7.8,12,7.3,11
	c0.3,0.1,0.6,0.1,0.9,0c0,0-1.3-2.2-0.7-3.6C7.5,7.5,9.8,10.3,12.9,10.5z"/>
<path class="st1" d="M18.2,0.5h-11c-3.5,0-6.3,2.8-6.3,6.3v11c0,3.5,2.8,6.3,6.3,6.3h11c3.5,0,6.3-2.8,6.3-6.3v-11
	C24.5,3.4,21.7,0.5,18.2,0.5z M18,9.6c0.1,1.9-0.4,3.7-1.4,5.3c-1.5,2.2-4.3,2.4-5.8,2.4c-1.2-0.1-2.4-0.4-3.5-1c0,0,2.3,0,3.3-0.7
	C9.8,15,9,14.4,8.3,13.7c0.3,0,0.6,0,0.8-0.1C8.5,12.8,7.8,12,7.3,11c0.3,0.1,0.6,0.1,0.9,0c0,0-1.3-2.2-0.7-3.6
	c0,0,2.3,2.9,5.4,3.1c0,0,0.2-3,2.3-3c1.7,0,2,0.8,2,0.8c0.5-0.2,1-0.4,1.4-0.8c0,0.5-0.2,1-0.6,1.4c0.3,0,0.6-0.1,0.9-0.3
	C18.8,9,18.5,9.4,18,9.6z"/>
</svg>
