<?xml version="1.0" encoding="utf-8"?>
<!-- Generator: Adobe Illustrator 17.1.0, SVG Export Plug-In . SVG Version: 6.00 Build 0)  -->
<!DOCTYPE svg PUBLIC "-//W3C//DTD SVG 1.1//EN" "http://www.w3.org/Graphics/SVG/1.1/DTD/svg11.dtd">
<svg version="1.1" id="Layer_1" xmlns="http://www.w3.org/2000/svg" xmlns:xlink="http://www.w3.org/1999/xlink" x="0px" y="0px"
	 viewBox="0 0 48 48" enable-background="new 0 0 48 48" xml:space="preserve" width="48" height="48">
<g>
	<defs>
		<rect id="SVGID_1_" width="48" height="48"/>
	</defs>
	<clipPath id="SVGID_2_">
		<use xlink:href="#SVGID_1_"  overflow="visible"/>
	</clipPath>
	
		<path clip-path="url(#SVGID_2_)" fill="none" stroke="#0081db" stroke-width="2" stroke-linecap="round" stroke-linejoin="round" stroke-miterlimit="10" d="
		M41,23h4.4c0.9,0,1.6-0.7,1.6-1.6V2.6C47,1.7,46.3,1,45.4,1H20.6C19.7,1,19,1.7,19,2.6v18.9c0,0.9,0.7,1.6,1.6,1.6H33"/>
	
		<polyline clip-path="url(#SVGID_2_)" fill="none" stroke="#0081db" stroke-width="2" stroke-linecap="round" stroke-linejoin="round" stroke-miterlimit="10" points="
		41,23 41,31 33,23 	"/>
	
		<path clip-path="url(#SVGID_2_)" fill="none" stroke="#0081db" stroke-width="2" stroke-linecap="round" stroke-linejoin="round" stroke-miterlimit="10" d="
		M29,29v8.4c0,0.9-0.7,1.6-1.6,1.6H15"/>
	
		<path clip-path="url(#SVGID_2_)" fill="none" stroke="#0081db" stroke-width="2" stroke-linecap="round" stroke-linejoin="round" stroke-miterlimit="10" d="
		M7,39H2.6C1.7,39,1,38.3,1,37.4V18.6C1,17.7,1.7,17,2.6,17H13"/>
	
		<polyline clip-path="url(#SVGID_2_)" fill="none" stroke="#0081db" stroke-width="2" stroke-linecap="round" stroke-linejoin="round" stroke-miterlimit="10" points="
		7,39 7,47 15,39 	"/>
	
		<polyline clip-path="url(#SVGID_2_)" fill="none" stroke="#0081db" stroke-width="2" stroke-linecap="round" stroke-linejoin="round" stroke-miterlimit="10" points="
		10,33 14,23 18,33 	"/>
	
		<path clip-path="url(#SVGID_2_)" fill="none" stroke="#0081db" stroke-width="2" stroke-linecap="round" stroke-linejoin="round" stroke-miterlimit="10" d="
		M36,14h-3.2c-2,0-3.7-1.5-3.7-3.5c0-2,1.6-3.5,3.7-3.5H36"/>
	
		<line clip-path="url(#SVGID_2_)" fill="none" stroke="#0081db" stroke-width="2" stroke-linecap="round" stroke-linejoin="round" stroke-miterlimit="10" x1="36" y1="7" x2="36" y2="17"/>
	
		<line clip-path="url(#SVGID_2_)" fill="none" stroke="#0081db" stroke-width="2" stroke-linecap="round" stroke-linejoin="round" stroke-miterlimit="10" x1="12" y1="30" x2="16" y2="30"/>
</g>
</svg>
