<?xml version="1.0" encoding="utf-8"?>
<!-- Generator: Adobe Illustrator 17.1.0, SVG Export Plug-In . SVG Version: 6.00 Build 0)  -->
<!DOCTYPE svg PUBLIC "-//W3C//DTD SVG 1.1//EN" "http://www.w3.org/Graphics/SVG/1.1/DTD/svg11.dtd">
<svg version="1.1" id="Layer_1" xmlns="http://www.w3.org/2000/svg" xmlns:xlink="http://www.w3.org/1999/xlink" x="0px" y="0px"
	 viewBox="0 0 23.6 23.6" enable-background="new 0 0 23.6 23.6" xml:space="preserve" width="20" height="20">
<g>
	<defs>
		<rect id="SVGID_1_" width="23.6" height="23.6"/>
	</defs>
	<clipPath id="SVGID_2_">
		<use xlink:href="#SVGID_1_"  overflow="visible"/>
	</clipPath>
	<path clip-path="url(#SVGID_2_)" fill="#d0d7db" d="M11.8,7.9c-2.1,0-3.9,1.7-3.9,3.9c0,2.1,1.7,3.9,3.9,3.9c2.1,0,3.9-1.7,3.9-3.9
		C15.7,9.7,14,7.9,11.8,7.9"/>
	<path clip-path="url(#SVGID_2_)" fill="#d0d7db" d="M17.3,0h-11C2.8,0,0,2.8,0,6.3v11c0,3.5,2.8,6.3,6.3,6.3h11
		c3.5,0,6.3-2.8,6.3-6.3v-11C23.6,2.8,20.8,0,17.3,0 M11.8,18.1c-3.5,0-6.3-2.8-6.3-6.3s2.8-6.3,6.3-6.3c3.5,0,6.3,2.8,6.3,6.3
		S15.3,18.1,11.8,18.1 M19.2,6.5c-0.9,0-1.7-0.8-1.7-1.7c0-0.9,0.8-1.7,1.7-1.7c0.9,0,1.7,0.8,1.7,1.7C20.9,5.8,20.2,6.5,19.2,6.5"
		/>
</g>
</svg>
