<?xml version="1.0" encoding="utf-8"?>
<!-- Generator: Adobe Illustrator 17.1.0, SVG Export Plug-In . SVG Version: 6.00 Build 0)  -->
<!DOCTYPE svg PUBLIC "-//W3C//DTD SVG 1.1//EN" "http://www.w3.org/Graphics/SVG/1.1/DTD/svg11.dtd">
<svg version="1.1" id="Layer_1" xmlns="http://www.w3.org/2000/svg" xmlns:xlink="http://www.w3.org/1999/xlink" x="0px" y="0px"
	 viewBox="0 0 23.6 23.6" enable-background="new 0 0 23.6 23.6" xml:space="preserve" width="20" height="20">
<g>
	<defs>
		<rect id="SVGID_1_" width="23.6" height="23.6"/>
	</defs>
	<clipPath id="SVGID_2_">
		<use xlink:href="#SVGID_1_"  overflow="visible"/>
	</clipPath>
	<path clip-path="url(#SVGID_2_)" fill="#d0d7db" d="M11.8,10c1,0,1.8-0.8,1.8-1.8c0-1-0.8-1.8-1.8-1.8l0,0c-1,0-1.8,0.8-1.8,1.8
		C10,9.2,10.8,10,11.8,10"/>
	<path clip-path="url(#SVGID_2_)" fill="#d0d7db" d="M17.3,0l-11,0C2.8,0,0,2.8,0,6.3l0,11c0,3.5,2.8,6.3,6.3,6.3l11,0
		c3.5,0,6.3-2.8,6.3-6.3l0-11C23.6,2.8,20.8,0,17.3,0 M11.8,4.1L11.8,4.1c2.3,0,4.1,1.9,4.1,4.1c0,2.3-1.9,4.1-4.1,4.1
		c-2.3,0-4.1-1.9-4.1-4.1C7.7,6,9.5,4.1,11.8,4.1 M14.8,16.8c0.5,0.4,0.9,0.9,1.1,1.5c-0.1,0.6-0.6,1-1.2,1.2
		c-0.6-0.3-1.2-0.8-1.6-1.3c-0.7-0.7-1.3-1.3-1.3-1.3s-0.6,0.6-1.3,1.2c-0.4,0.5-1,1-1.6,1.3c-0.6-0.2-1.1-0.7-1.2-1.4
		c0.4-0.7,0.9-1.2,1.5-1.7c0.3-0.3,0.6-0.6,0.9-0.9c-0.3,0-0.5-0.1-0.8-0.2c-0.6-0.3-1.8-0.6-1.7-1.2c0-0.6,0.2-1.5,0.7-1.5
		c0.5,0.2,0.9,0.4,1.3,0.6c0.7,0.3,1.5,0.5,2.2,0.5v0c0.8,0,1.6-0.1,2.3-0.4c0.4-0.3,0.9-0.5,1.3-0.7c0.3,0,0.7,0.4,0.6,1.6
		c0,0.6-1.2,0.9-1.6,1.1c-0.3,0.1-0.6,0.2-0.9,0.3C13.6,15.5,14.6,16.5,14.8,16.8"/>
</g>
</svg>
