<?xml version="1.0" encoding="utf-8"?>
<!-- Generator: Adobe Illustrator 17.1.0, SVG Export Plug-In . SVG Version: 6.00 Build 0)  -->
<!DOCTYPE svg PUBLIC "-//W3C//DTD SVG 1.1//EN" "http://www.w3.org/Graphics/SVG/1.1/DTD/svg11.dtd">
<svg version="1.1" id="Layer_4" xmlns="http://www.w3.org/2000/svg" xmlns:xlink="http://www.w3.org/1999/xlink" x="0px" y="0px"
	 viewBox="0 0 678.5 211.1" enable-background="new 0 0 678.5 211.1" xml:space="preserve" width="165" height="51">
<g>
	<linearGradient id="SVGID_1_" gradientUnits="userSpaceOnUse" x1="31.929" y1="59.147" x2="148.8904" y2="100.4274">
		<stop  offset="0" style="stop-color:#97165E"/>
		<stop  offset="1.701963e-002" style="stop-color:#9B1560"/>
		<stop  offset="0.1746" style="stop-color:#B80D6D"/>
		<stop  offset="0.3426" style="stop-color:#CE0778"/>
		<stop  offset="0.5236" style="stop-color:#DE037F"/>
		<stop  offset="0.7272" style="stop-color:#E80184"/>
		<stop  offset="1" style="stop-color:#EB0085"/>
	</linearGradient>
	<path fill-rule="evenodd" clip-rule="evenodd" fill="url(#SVGID_1_)" d="M111.9,0c15,6.9,20,16.6,18.6,26.8
		c-2.2,9.6-11.7,18.1-19.1,23.3C95.9,61,73.5,70.5,54.4,64.5c-14.9-4.7-11.6-21.7-11.9-19.9c-1.4,7.2,0.2,15.2,6.1,20.1
		c5.3,4.4,14.4,5.6,21.1,5.6c6,0,12.1-1.1,18-2.6c-3.7,1.9-7.5,3.7-11.4,5.2c-15.8,6-29,3.5-42.5,6.9C9,86,0,109.4,0,109.4
		S11.1,85.8,56.3,87c0.3,0,1.3,0.1,1.7,0.1c-17.7,11.8-27.5,28.7-10.6,66.1c-3.5-54.2,48-58.4,75.9-73.7
		C165.8,56.3,168.8,10.8,111.9,0z"/>
	<linearGradient id="SVGID_2_" gradientUnits="userSpaceOnUse" x1="123.8405" y1="102.3999" x2="167.5169" y2="142.068">
		<stop  offset="0" style="stop-color:#97165E"/>
		<stop  offset="1.701963e-002" style="stop-color:#9B1560"/>
		<stop  offset="0.1746" style="stop-color:#B80D6D"/>
		<stop  offset="0.3426" style="stop-color:#CE0778"/>
		<stop  offset="0.5236" style="stop-color:#DE037F"/>
		<stop  offset="0.7272" style="stop-color:#E80184"/>
		<stop  offset="1" style="stop-color:#EB0085"/>
	</linearGradient>
	<path fill-rule="evenodd" clip-rule="evenodd" fill="url(#SVGID_2_)" d="M170.6,118.1c7.7,4.6,13.5,5.8,24.7,5.3l-3.9-2.1
		c-5.3-2.3-6.2-2.9-11-6.3c-15.8-11.8-14.2-36.7-15.4-54.5c-0.8-10.1-2-19.5-5.3-27.8c-0.9-2.2-3.9-6.6-3.9-6.6
		c4.8,16.3,4.4,25.3-5.1,44.9c-10.4,21.5,9,33.3-5.4,35.3c-9.9,1.4-7.2,3.1-6.7,8.3c0.3,3.5-1.9,3.7-5.8,4.1c0.6,6.6,1,5.7-4.7,6.6
		c-6,0.9-0.4,14.8-12.6,12.1c-7.6-1.7-12.1-9.1-22.7-8.9c-26,25.7,16.1,42.5,31.7,80.2c2.6-15.9-16.6-38.3,7.4-53.6
		c-7,19.1-8,42.3,10.1,56.1c-1.4-5-4.1-9.9-4.7-16.1c-0.9-8.6-0.2-18.5,2.3-26.5c11.3-37.5-3.7,23.2,35.9,29.9
		c-8.3-8.9-13-13.9-12.1-29.6c1.5-26,1-28.2-3.5-39.4c1.1,2.7,11.2,8.5,17.6,20.3c7.4,13.7,3.8,18.6,2.4,32.2
		C200.7,140,169.8,134.9,170.6,118.1L170.6,118.1z"/>
	<linearGradient id="SVGID_3_" gradientUnits="userSpaceOnUse" x1="58.3864" y1="16.5441" x2="85.744" y2="16.5441">
		<stop  offset="0" style="stop-color:#97165E"/>
		<stop  offset="1.701963e-002" style="stop-color:#9B1560"/>
		<stop  offset="0.1746" style="stop-color:#B80D6D"/>
		<stop  offset="0.3426" style="stop-color:#CE0778"/>
		<stop  offset="0.5236" style="stop-color:#DE037F"/>
		<stop  offset="0.7272" style="stop-color:#E80184"/>
		<stop  offset="1" style="stop-color:#EB0085"/>
	</linearGradient>
	<path fill-rule="evenodd" clip-rule="evenodd" fill="url(#SVGID_3_)" d="M76.1,14.6c0.3-0.3,5,4.9,9.3,13.2c0-0.1,0-0.2,0-0.2
		C88.3,8.7,65.1,2,58.4,0.9c10.3,8.3,11.2,35.3,26,30.7C81.1,24.8,77.7,17.4,76.1,14.6z"/>
	<linearGradient id="SVGID_4_" gradientUnits="userSpaceOnUse" x1="90.7299" y1="24.3532" x2="113.6268" y2="24.3532">
		<stop  offset="0" style="stop-color:#97165E"/>
		<stop  offset="1.701963e-002" style="stop-color:#9B1560"/>
		<stop  offset="0.1746" style="stop-color:#B80D6D"/>
		<stop  offset="0.3426" style="stop-color:#CE0778"/>
		<stop  offset="0.5236" style="stop-color:#DE037F"/>
		<stop  offset="0.7272" style="stop-color:#E80184"/>
		<stop  offset="1" style="stop-color:#EB0085"/>
	</linearGradient>
	<path fill-rule="evenodd" clip-rule="evenodd" fill="url(#SVGID_4_)" d="M98.4,21.8c-2.5,2.6-4.4,4.5-7.3,11.4c0-0.1,0-0.1,0-0.2
		c-3-15.7,18.7-21.6,22.6-22c-6.9,7.2-13.2,32.5-21.5,25.4C93.5,29.9,96.7,24.6,98.4,21.8z"/>
	<linearGradient id="SVGID_5_" gradientUnits="userSpaceOnUse" x1="51.5601" y1="44.4541" x2="89.792" y2="44.4541">
		<stop  offset="0" style="stop-color:#97165E"/>
		<stop  offset="1.701963e-002" style="stop-color:#9B1560"/>
		<stop  offset="0.1746" style="stop-color:#B80D6D"/>
		<stop  offset="0.3426" style="stop-color:#CE0778"/>
		<stop  offset="0.5236" style="stop-color:#DE037F"/>
		<stop  offset="0.7272" style="stop-color:#E80184"/>
		<stop  offset="1" style="stop-color:#EB0085"/>
	</linearGradient>
	<path fill-rule="evenodd" clip-rule="evenodd" fill="url(#SVGID_5_)" d="M70,41.3c3.9-1.7,6.9-3,15.9-3.3c-0.1,0-0.1-0.1-0.2-0.1
		c-16.2-10.1-32,11.6-34.1,15.8c11-4.6,44-2.8,37.4-13.1C81.1,39.3,73.8,40.6,70,41.3z"/>
	<linearGradient id="SVGID_6_" gradientUnits="userSpaceOnUse" x1="7.619" y1="68.6247" x2="16.8691" y2="68.6247">
		<stop  offset="0" style="stop-color:#97165E"/>
		<stop  offset="1.701963e-002" style="stop-color:#9B1560"/>
		<stop  offset="0.1746" style="stop-color:#B80D6D"/>
		<stop  offset="0.3426" style="stop-color:#CE0778"/>
		<stop  offset="0.5236" style="stop-color:#DE037F"/>
		<stop  offset="0.7272" style="stop-color:#E80184"/>
		<stop  offset="1" style="stop-color:#EB0085"/>
	</linearGradient>
	<path fill-rule="evenodd" clip-rule="evenodd" fill="url(#SVGID_6_)" d="M7.6,71.3c0.1-0.3,5.7-0.8,8.1-2.7
		c3.1-1.8-0.5-5.1-6.5,0.7C8.6,69.9,8.1,70.6,7.6,71.3z"/>
	<linearGradient id="SVGID_7_" gradientUnits="userSpaceOnUse" x1="11.9846" y1="55.1877" x2="30.4527" y2="55.1877">
		<stop  offset="0" style="stop-color:#97165E"/>
		<stop  offset="1.701963e-002" style="stop-color:#9B1560"/>
		<stop  offset="0.1746" style="stop-color:#B80D6D"/>
		<stop  offset="0.3426" style="stop-color:#CE0778"/>
		<stop  offset="0.5236" style="stop-color:#DE037F"/>
		<stop  offset="0.7272" style="stop-color:#E80184"/>
		<stop  offset="1" style="stop-color:#EB0085"/>
	</linearGradient>
	<path fill-rule="evenodd" clip-rule="evenodd" fill="url(#SVGID_7_)" d="M12,55.9c6-0.7,8.7-3.9,14-4.4c6.2-0.6,7.6,9.7-6.7,6.8
		C16.1,57.7,13.4,56.4,12,55.9z"/>
</g>
<g>
	<g>
		<path fill="#17292C" d="M249.2,118.2h-24V67.1h23.4c10.6,0,15.5,6.5,15.5,13.8c0,4.8-1.7,7.9-5.7,10.4v0.1c5.3,2.3,8,6.7,8,12.4
			C266.4,112.6,260.5,118.2,249.2,118.2z M248,72.8h-17.4l0.6,0.6v15l-0.6,0.6H248c7.3,0,10-3.7,10-8.2
			C258,75.4,254.6,72.8,248,72.8z M249.2,94.7h-18.6l0.6,0.6v16.5l-0.6,0.6h18.6c7.8,0,11-3.2,11-8.8
			C260.2,98.1,256.8,94.7,249.2,94.7z"/>
		<path fill="#17292C" d="M311.9,118.2h-37.6V67.1h37.6v5.7h-32.2l0.6,0.6v15.8l-0.6,0.6h29.2v5.7h-29.2l0.6,0.6v15.8l-0.6,0.6h32.2
			V118.2z"/>
		<path fill="#17292C" d="M367.9,118.2h-6.6l-5.4-12.3l0.3-0.6h-28l0.3,0.6l-5.4,12.3h-6.6l22.5-51.1h6.4L367.9,118.2z M353.5,99.6
			l-0.6-0.6l-9-20.5l-1.5-5.1h-0.1l-1.6,5.1l-9,20.5l-0.6,0.6H353.5z"/>
		<path fill="#17292C" d="M415,94.8c0,15.7-6.9,24-21.6,24c-14.8,0-21.7-8.3-21.7-24V67.1h6v27.6c0,11.4,4.1,18.4,15.7,18.4
			c11.4,0,15.7-7.1,15.7-18.4V67.1h6V94.8z"/>
		<path fill="#17292C" d="M463.6,72.8H445l0.3,0.6v44.8h-6V73.4l0.3-0.6H421v-5.7h42.6V72.8z"/>
		<path fill="#17292C" d="M513.9,67.1l-21.3,29.7v21.5h-6.1V96.7l-21.3-29.7h7.6l13.3,18.7l3.5,5.9h0.1l3.4-5.9l13.3-18.7H513.9z"/>
		<path fill="#17292C" d="M541.7,118.8c-9.1,0-17.9-2.8-24.3-9l7.4-7.4c5.2,4.7,11.3,6.9,17.2,6.9c8.4,0,11.4-2.7,11.4-5.5
			c0-1.6-1.5-4.2-8.1-5.8c-1.1-0.3-8.3-2-9.5-2.3c-9.1-2.3-17.2-5.7-17.2-14.4c0-8.1,7.8-14.8,22.4-14.8c9.2,0,16.7,3.1,22.3,8.8
			l-7.5,7.4c-3.5-4-9-6.7-14.9-6.7c-8.3,0-11.4,2.7-11.4,5c0,2.1,2.3,3.5,10.6,5.6c1.1,0.3,7.1,1.8,8.3,2.1c10.7,2.6,16,8.1,16,15
			C564.4,111.5,557.4,118.8,541.7,118.8z"/>
		<path fill="#17292C" d="M598.3,100.3h-16l1,0.9v16.9h-10.7V67.1h25.7c12.1,0,19.2,6.9,19.2,16.6C617.5,93,610.4,100.3,598.3,100.3
			z M598.3,76.7h-16l1,0.9v12.1l-1,1h16c6,0,8.3-3,8.3-7.1C606.6,79.4,604.3,76.7,598.3,76.7z"/>
		<path fill="#17292C" d="M675.5,118.2h-11.7l-5.4-11.2l0.6-0.9h-25.7l0.6,0.9l-5.3,11.2h-11.8l24.6-51.1h9.5L675.5,118.2z
			 M654.3,97.1l-1.1-1l-5.3-11.1l-1.6-4.7l-0.1,0.1l-1.6,4.6L639.3,96l-1.1,1H654.3z"/>
	</g>
	<g>
		<path fill="#17292C" d="M240.9,139.9l-7.1,9.9v7.2h-2v-7.2l-7.1-9.9h2.5l4.4,6.2l1.2,2h0l1.1-2l4.4-6.2H240.9z"/>
		<path fill="#17292C" d="M249.9,157.2c-5.2,0-8-3.5-8-8.6c0-5.2,2.8-8.8,8-8.8c5.3,0,8,3.6,8,8.8
			C257.9,153.7,255.1,157.2,249.9,157.2z M249.9,141.6c-4.2,0-5.9,3.1-5.9,6.9c0,3.7,1.7,6.7,5.9,6.7c4.2,0,5.9-3,5.9-6.7
			C255.8,144.9,254.2,141.6,249.9,141.6z"/>
		<path fill="#17292C" d="M275.3,149.2c0,5.2-2.3,8-7.2,8c-4.9,0-7.2-2.8-7.2-8v-9.2h2v9.2c0,3.8,1.4,6.1,5.2,6.1
			c3.8,0,5.2-2.4,5.2-6.1v-9.2h2V149.2z"/>
		<path fill="#17292C" d="M293.5,157h-2.3l-2.1-4.5c-0.8-1.7-2.1-2.5-4.4-2.5h-4l0.2,0.2v6.8h-2v-17h7.5c3.1,0,5.7,1.7,5.7,5
			c0,2.2-1.5,3.9-3.4,4.4v0c0.8,0.3,1.7,1.1,2.2,2.3L293.5,157z M286.4,141.8h-5.7l0.2,0.2v5.8l-0.2,0.2h5.4c2.5,0,3.9-1.3,3.9-3.1
			C290.1,142.7,288.5,141.8,286.4,141.8z"/>
		<path fill="#17292C" d="M310.1,157h-8v-17h7.8c3.5,0,5.2,2.2,5.2,4.6c0,1.6-0.6,2.6-1.9,3.4v0c1.8,0.8,2.7,2.2,2.7,4.1
			C315.8,155.1,313.8,157,310.1,157z M309.7,141.8h-5.8l0.2,0.2v5l-0.2,0.2h5.8c2.4,0,3.3-1.2,3.3-2.7
			C313,142.7,311.8,141.8,309.7,141.8z M310,149.1h-6.2l0.2,0.2v5.5l-0.2,0.2h6.2c2.6,0,3.7-1.1,3.7-2.9
			C313.7,150.3,312.6,149.1,310,149.1z"/>
		<path fill="#17292C" d="M333,149.2c0,5.2-2.3,8-7.2,8c-4.9,0-7.2-2.8-7.2-8v-9.2h2v9.2c0,3.8,1.4,6.1,5.2,6.1
			c3.8,0,5.2-2.4,5.2-6.1v-9.2h2V149.2z"/>
		<path fill="#17292C" d="M343.1,157.2c-2.7,0-5.6-0.9-7.3-2.8l1.6-1.5c1.8,1.7,3.5,2.4,5.7,2.4c3.2,0,4.8-1.2,4.8-2.8
			c0-1.2-1-2.2-3.3-2.8c-0.4-0.1-2.8-0.7-3.1-0.8c-3.1-0.9-5.2-2-5.2-4.5c0-2.4,2-4.6,6.7-4.6c2.7,0,5,1,6.5,2.6l-1.5,1.5
			c-1.1-1.3-2.8-2.2-5-2.2c-3.2,0-4.6,1.2-4.6,2.6c0,1.3,1.3,2,4.1,2.8c0.4,0.1,2.4,0.7,2.8,0.8c3.4,0.9,4.7,2.6,4.7,4.6
			C349.9,154.7,348.1,157.2,343.1,157.2z"/>
		<path fill="#17292C" d="M355,157h-2v-17h2V157z"/>
		<path fill="#17292C" d="M372.9,157H371l-8.8-11.7l-1.3-2h0V157h-2v-17h1.8l8.9,11.8l1.2,1.9h0v-13.7h2V157z"/>
		<path fill="#17292C" d="M389.2,157h-12.5v-17h12.5v1.9h-10.7l0.2,0.2v5.3l-0.2,0.2h9.7v1.9h-9.7l0.2,0.2v5.3l-0.2,0.2h10.7V157z"
			/>
		<path fill="#17292C" d="M399,157.2c-2.7,0-5.6-0.9-7.3-2.8l1.6-1.5c1.8,1.7,3.5,2.4,5.7,2.4c3.2,0,4.8-1.2,4.8-2.8
			c0-1.2-1-2.2-3.3-2.8c-0.4-0.1-2.8-0.7-3.1-0.8c-3.1-0.9-5.2-2-5.2-4.5c0-2.4,2-4.6,6.7-4.6c2.7,0,5,1,6.5,2.6l-1.5,1.5
			c-1.1-1.3-2.8-2.2-5-2.2c-3.2,0-4.6,1.2-4.6,2.6c0,1.3,1.3,2,4.1,2.8c0.4,0.1,2.4,0.7,2.8,0.8c3.4,0.9,4.7,2.6,4.7,4.6
			C405.8,154.7,404,157.2,399,157.2z"/>
		<path fill="#17292C" d="M415.2,157.2c-2.7,0-5.6-0.9-7.3-2.8l1.6-1.5c1.8,1.7,3.5,2.4,5.7,2.4c3.2,0,4.8-1.2,4.8-2.8
			c0-1.2-1-2.2-3.3-2.8c-0.4-0.1-2.8-0.7-3.1-0.8c-3.1-0.9-5.2-2-5.2-4.5c0-2.4,2-4.6,6.7-4.6c2.7,0,5,1,6.5,2.6l-1.5,1.5
			c-1.1-1.3-2.8-2.2-5-2.2c-3.2,0-4.6,1.2-4.6,2.6c0,1.3,1.3,2,4.1,2.8c0.4,0.1,2.4,0.7,2.8,0.8c3.4,0.9,4.7,2.6,4.7,4.6
			C422,154.7,420.2,157.2,415.2,157.2z"/>
		<path fill="#17292C" d="M444.2,141.8H438l0.1,0.2V157h-2V142l0.1-0.2H430v-1.9h14.2V141.8z"/>
		<path fill="#17292C" d="M460.2,157H458l-1.8-4.1l0.1-0.2H447l0.1,0.2l-1.8,4.1h-2.2l7.5-17h2.1L460.2,157z M455.4,150.8l-0.2-0.2
			l-3-6.8l-0.5-1.7h0l-0.5,1.7l-3,6.8l-0.2,0.2H455.4z"/>
		<path fill="#17292C" d="M476.6,157h-1.7v-2.5h0c-1.2,1.7-3.2,2.7-5.5,2.7c-5.3,0-8.3-3.3-8.3-8.6c0-5.4,3.1-8.9,8.4-8.9
			c2.4,0,5,0.7,6.6,2.6l-1.5,1.5c-1.2-1.6-3.2-2.1-5-2.1c-4.3,0-6.4,2.7-6.4,7c0,4.1,2,6.7,6.2,6.7c3.3,0,5.5-2.4,5.5-5.7l0.2-0.2
			h-5.8v-1.9h7.3V157z"/>
		<path fill="#17292C" d="M491.9,157h-11.5v-17h2v14.9l-0.2,0.2h9.7V157z"/>
		<path fill="#17292C" d="M496.2,157h-2v-17h2V157z"/>
		<path fill="#17292C" d="M514.1,157h-1.8l-8.8-11.7l-1.3-2h0V157h-2v-17h1.8l8.9,11.8l1.2,1.9h0v-13.7h2V157z"/>
		<path fill="#17292C" d="M530.4,157h-12.5v-17h12.5v1.9h-10.7l0.2,0.2v5.3l-0.2,0.2h9.7v1.9h-9.7l0.2,0.2v5.3l-0.2,0.2h10.7V157z"
			/>
		<path fill="#17292C" d="M555.1,157h-1.7v-2.5h0c-1.2,1.7-3.2,2.7-5.5,2.7c-5.3,0-8.3-3.3-8.3-8.6c0-5.4,3.1-8.9,8.4-8.9
			c2.4,0,5,0.7,6.6,2.6l-1.5,1.5c-1.2-1.6-3.2-2.1-5-2.1c-4.3,0-6.4,2.7-6.4,7c0,4.1,2,6.7,6.2,6.7c3.3,0,5.5-2.4,5.5-5.7l0.2-0.2
			h-5.8v-1.9h7.3V157z"/>
		<path fill="#17292C" d="M566.1,157.2c-5.2,0-8-3.5-8-8.6c0-5.2,2.8-8.8,8-8.8c5.3,0,8,3.6,8,8.8
			C574.1,153.7,571.3,157.2,566.1,157.2z M566.2,141.6c-4.2,0-5.9,3.1-5.9,6.9c0,3.7,1.7,6.7,5.9,6.7c4.2,0,5.9-3,5.9-6.7
			C572.1,144.9,570.4,141.6,566.2,141.6z"/>
		<path fill="#17292C" d="M589.7,157h-12.5v-17h12.5v1.9H579l0.2,0.2v5.3l-0.2,0.2h9.7v1.9H579l0.2,0.2v5.3l-0.2,0.2h10.7V157z"/>
		<path fill="#17292C" d="M599.5,157.2c-2.7,0-5.6-0.9-7.3-2.8l1.6-1.5c1.8,1.7,3.5,2.4,5.7,2.4c3.2,0,4.8-1.2,4.8-2.8
			c0-1.2-1-2.2-3.3-2.8c-0.4-0.1-2.8-0.7-3.1-0.8c-3.1-0.9-5.2-2-5.2-4.5c0-2.4,2-4.6,6.7-4.6c2.7,0,5,1,6.5,2.6l-1.5,1.5
			c-1.1-1.3-2.8-2.2-5-2.2c-3.2,0-4.6,1.2-4.6,2.6c0,1.3,1.3,2,4.1,2.8c0.4,0.1,2.4,0.7,2.8,0.8c3.4,0.9,4.7,2.6,4.7,4.6
			C606.3,154.7,604.5,157.2,599.5,157.2z"/>
		<path fill="#17292C" d="M629.8,157h-2v-7.4l0.2-0.2h-10.4l0.2,0.2v7.4h-2v-17h2v7.4l-0.2,0.2H628l-0.2-0.2v-7.4h2V157z M628,149.4
			h-10.4H628z"/>
		<path fill="#17292C" d="M646.1,157h-12.5v-17h12.5v1.9h-10.7l0.2,0.2v5.3l-0.2,0.2h9.7v1.9h-9.7l0.2,0.2v5.3l-0.2,0.2h10.7V157z"
			/>
		<path fill="#17292C" d="M664,157h-2.3l-2.1-4.5c-0.8-1.7-2.1-2.5-4.4-2.5h-4l0.2,0.2v6.8h-2v-17h7.5c3.1,0,5.7,1.7,5.7,5
			c0,2.2-1.5,3.9-3.4,4.4v0c0.8,0.3,1.7,1.1,2.2,2.3L664,157z M656.9,141.8h-5.7l0.2,0.2v5.8l-0.2,0.2h5.4c2.5,0,3.9-1.3,3.9-3.1
			C660.6,142.7,659,141.8,656.9,141.8z"/>
		<path fill="#17292C" d="M678.5,157H666v-17h12.5v1.9h-10.7l0.2,0.2v5.3l-0.2,0.2h9.7v1.9h-9.7l0.2,0.2v5.3l-0.2,0.2h10.7V157z"/>
	</g>
</g>
</svg>
