<?xml version="1.0" encoding="utf-8"?>
<!-- Generator: Adobe Illustrator 17.1.0, SVG Export Plug-In . SVG Version: 6.00 Build 0)  -->
<!DOCTYPE svg PUBLIC "-//W3C//DTD SVG 1.1//EN" "http://www.w3.org/Graphics/SVG/1.1/DTD/svg11.dtd">
<svg version="1.1" id="Layer_1" xmlns="http://www.w3.org/2000/svg" xmlns:xlink="http://www.w3.org/1999/xlink" x="0px" y="0px"
	 viewBox="0 0 447.9 248.7" enable-background="new 0 0 447.9 248.7" xml:space="preserve" width="131" height="72">
<g>
	<defs>
		<rect id="SVGID_1_" width="447.9" height="248.7"/>
	</defs>
	<clipPath id="SVGID_2_">
		<use xlink:href="#SVGID_1_"  overflow="visible"/>
	</clipPath>
	<path clip-path="url(#SVGID_2_)" fill="#172929" d="M24.5,200.2H9.3l1,0.9v16.1H0v-48.7h24.5c11.6,0,18.4,6.6,18.4,15.8
		C42.8,193.2,36,200.2,24.5,200.2 M24.5,177.6H9.3l1,0.9v11.6l-1,1h15.2c5.7,0,7.9-2.8,7.9-6.7C32.4,180.2,30.2,177.6,24.5,177.6"/>
	<path clip-path="url(#SVGID_2_)" fill="#172929" d="M67.5,217.8c-13.5,0-20.2-8.5-20.2-19.6s6.7-19.6,20.1-19.6
		c13.5,0,20.2,8.5,20.2,19.6C87.7,209.2,80.9,217.8,67.5,217.8 M67.5,187.4c-7.1,0-10.1,4.3-10.1,10.9c0,6.5,3.1,11,10.1,11
		c7,0,10.1-4.5,10.1-11C77.6,191.8,74.6,187.4,67.5,187.4"/>
	<polygon clip-path="url(#SVGID_2_)" fill="#172929" points="146.9,179.3 135.1,217.2 124.9,217.2 119.8,200.1 118.7,193.8 
		118.6,193.8 117.3,200.1 112.2,217.2 101.9,217.2 90.3,179.3 100.9,179.3 106.1,198.1 107.2,204.4 107.3,204.4 108.5,198.1 
		114.4,179.3 122.8,179.3 128.7,198.1 129.9,204.5 130,204.5 131.1,198.1 136.4,179.3 	"/>
	<path clip-path="url(#SVGID_2_)" fill="#172929" d="M189.6,202.2h-30.3l0.9,1c1.4,3.9,4.9,6.4,10.1,6.4c3.8,0,6.9-1.1,9.9-3.6
		l6.1,6.1c-4.5,3.9-9.6,5.8-15.9,5.8c-14,0-20.8-8.5-20.8-19.3c0-11.4,7.4-19.9,20.3-19.9c13.5,0,20,8.8,20,19.9
		C189.8,199.5,189.7,201,189.6,202.2 M180,194.1l-1-1c-1.4-4-4.5-6.2-9.3-6.2c-4.9,0-7.9,2.3-9.4,6.2l-0.9,1H180z"/>
	<path clip-path="url(#SVGID_2_)" fill="#172929" d="M220,188h-3c-7.1,0-10.4,3.3-10.4,10.4v18.8h-10.1v-37.9h10.1v5.1h0.1
		c2.2-3.4,5.9-5.5,11-5.5h2.2V188z"/>
	<path clip-path="url(#SVGID_2_)" fill="#172929" d="M243.8,217.8c-7.8,0-16-2.5-20.9-7.9l4.5-4.2c5.2,4.8,10,6.7,16.2,6.7
		c9,0,13.8-3.4,13.8-8.1c0-3.3-2.8-6.4-9.4-8.1c-1.1-0.3-7.9-2.1-9-2.4c-8.9-2.5-14.8-5.7-14.8-12.8c0-6.7,5.8-13.2,19.1-13.2
		c7.8,0,14.4,2.8,18.7,7.5l-4.3,4.2c-3.1-3.7-7.9-6.2-14.3-6.2c-9.1,0-13.2,3.5-13.2,7.5c0,3.7,3.7,5.7,11.8,7.9
		c1.1,0.3,6.7,1.9,7.9,2.2c9.6,2.5,13.5,7.5,13.5,13.1C263.3,210.8,258.1,217.8,243.8,217.8"/>
	<path clip-path="url(#SVGID_2_)" fill="#172929" d="M286.3,217.8c-11.9,0-17.9-8.2-17.9-19.6c0-11.3,6-19.6,17.9-19.6
		c12,0,17.9,8.1,17.9,19.6C304.2,209.5,298.1,217.8,286.3,217.8 M286.3,184c-8.7,0-12.3,6.2-12.3,14.3c0,8,3.7,14.3,12.4,14.3
		c8.7,0,12.3-6.3,12.3-14.3S295,184,286.3,184"/>
	<path clip-path="url(#SVGID_2_)" fill="#172929" d="M344.2,217.2h-5.5v-4.8h-0.1c-3,3.4-7,5.4-11.9,5.4c-10.7,0-15.3-5.7-15.3-14.9
		v-23.6h5.5v23.3c0,5.6,1.6,9.9,10.4,9.9c6.4,0,11.4-3.6,11.4-10.7v-22.5h5.5V217.2z"/>
	<path clip-path="url(#SVGID_2_)" fill="#172929" d="M372.8,184.8H371c-5.5,0-11.6,3.7-11.6,13.7v18.7h-5.5v-37.9h5.5v6.6h0.1
		c2.2-4.6,7.2-7,12.1-7h1.2V184.8z"/>
	<path clip-path="url(#SVGID_2_)" fill="#172929" d="M408.2,212.3c-3.6,3.7-8.3,5.5-14.1,5.5c-12.2,0-18-8.2-18-19.3
		c0-11.3,6.6-19.9,18.1-19.9c6.1,0,10.6,1.9,13.5,4.9l-3.9,3.9c-2-2.2-5.5-3.6-9.6-3.6c-8.5,0.1-12.6,6.7-12.6,14.6
		c0,7.6,3.6,14,12.5,14c4.2,0,7.5-1.3,10.1-4.1L408.2,212.3z"/>
	<path clip-path="url(#SVGID_2_)" fill="#172929" d="M447.8,200.8h-30.6l0.7,0.6c1,6.9,4.9,11.1,12.6,11.1c4.2,0,7.7-1.4,10.4-4.1
		l3.9,3.9c-3.7,3.6-8.6,5.5-14.4,5.5c-12.5,0-18.3-8.2-18.3-19.3c0-11.6,6.6-19.9,18.1-19.9c12,0,17.8,8.4,17.8,19.9
		C447.9,199.5,447.9,200,447.8,200.8 M442.9,195.7l-0.7-0.6c-0.9-6.5-4.6-11.1-12-11.1c-7.6,0-11.3,4.8-12.3,11.1l-0.7,0.6H442.9z"
		/>
	<polygon clip-path="url(#SVGID_2_)" fill="#172929" points="31.8,233.6 25.4,242.3 25.4,248.5 23.2,248.5 23.2,242.3 16.9,233.6 
		19.7,233.6 23.4,238.8 24.3,240.4 24.3,240.4 25.3,238.8 29,233.6 	"/>
	<path clip-path="url(#SVGID_2_)" fill="#172929" d="M39.9,248.7c-4.7,0-7.2-3.1-7.2-7.5c0-4.5,2.5-7.7,7.2-7.7
		c4.7,0,7.2,3.2,7.2,7.7C47.1,245.6,44.6,248.7,39.9,248.7 M39.9,235.5c-3.5,0-4.9,2.5-4.9,5.7c0,3.1,1.4,5.5,4.9,5.5
		c3.5,0,4.9-2.4,4.9-5.5C44.8,238.1,43.4,235.5,39.9,235.5"/>
	<path clip-path="url(#SVGID_2_)" fill="#172929" d="M62.8,241.7c0,4.5-2.1,7-6.5,7c-4.5,0-6.6-2.5-6.6-7v-8.1h2.2v8
		c0,3.1,1.1,5,4.3,5c3.2,0,4.3-1.9,4.3-5v-8h2.2V241.7z"/>
	<path clip-path="url(#SVGID_2_)" fill="#172929" d="M79.3,248.5h-2.5l-1.9-3.9c-0.7-1.4-1.7-2-3.6-2H68l0.2,0.2v5.8H66v-14.9h6.7
		c2.8,0,5.2,1.5,5.2,4.5c0,1.8-1.3,3.2-2.8,3.8v0c0.6,0.3,1.3,0.9,1.7,1.8L79.3,248.5z M72.7,235.6H68l0.2,0.2v4.4l-0.2,0.2h4.6
		c2.1,0,3.2-1,3.2-2.4C75.7,236.3,74.5,235.6,72.7,235.6"/>
	<path clip-path="url(#SVGID_2_)" fill="#172929" d="M94,248.5h-7.2v-14.9h7.1c3.2,0,4.7,1.9,4.7,4.1c0,1.3-0.5,2.2-1.6,2.9v0
		c1.4,0.5,2.2,1.8,2.2,3.5C99.2,246.8,97.3,248.5,94,248.5 M93.6,235.6h-4.9l0.2,0.2v3.7l-0.2,0.2h4.9c2,0,2.7-0.9,2.7-2.1
		C96.3,236.3,95.4,235.6,93.6,235.6 M94,241.9h-5.2l0.2,0.2v4.2l-0.2,0.2H94c2.2,0,3-0.8,3-2.3C96.9,242.8,96.1,241.9,94,241.9"/>
	<path clip-path="url(#SVGID_2_)" fill="#172929" d="M114.7,241.7c0,4.5-2.1,7-6.5,7c-4.5,0-6.6-2.5-6.6-7v-8.1h2.2v8
		c0,3.1,1.1,5,4.3,5c3.2,0,4.3-1.9,4.3-5v-8h2.2V241.7z"/>
	<path clip-path="url(#SVGID_2_)" fill="#172929" d="M123.8,248.7c-2.4,0-5-0.8-6.7-2.5l1.6-1.6c1.7,1.5,3.1,2.1,5,2.1
		c2.7,0,4-1,4-2.2c0-0.8-0.7-1.7-2.7-2.2c-0.3-0.1-2.4-0.6-2.7-0.7c-2.7-0.7-4.7-1.7-4.7-4c0-2.2,1.9-4.1,6.1-4.1
		c2.4,0,4.5,0.8,6,2.4l-1.6,1.6c-1-1.2-2.4-1.9-4.3-1.9c-2.8,0-3.8,1-3.8,2c0,0.9,0.9,1.5,3.4,2.1c0.3,0.1,2.1,0.6,2.4,0.6
		c3,0.8,4.3,2.3,4.3,4.1C130,246.5,128.3,248.7,123.8,248.7"/>
	<rect x="132.7" y="233.6" clip-path="url(#SVGID_2_)" fill="#172929" width="2.2" height="14.9"/>
	<polygon clip-path="url(#SVGID_2_)" fill="#172929" points="151,248.5 149,248.5 141.5,238.9 140.5,237.2 140.5,237.2 140.5,248.5 
		138.3,248.5 138.3,233.6 140.2,233.6 147.7,243.3 148.7,244.9 148.8,244.9 148.8,233.6 151,233.6 	"/>
	<polygon clip-path="url(#SVGID_2_)" fill="#172929" points="165.7,248.5 154.3,248.5 154.3,233.6 165.7,233.6 165.7,235.6 
		156.3,235.6 156.5,235.9 156.5,239.8 156.3,240 164.8,240 164.8,242.1 156.3,242.1 156.5,242.3 156.5,246.2 156.3,246.5 
		165.7,246.5 	"/>
	<path clip-path="url(#SVGID_2_)" fill="#172929" d="M174.6,248.7c-2.4,0-5-0.8-6.7-2.5l1.6-1.6c1.7,1.5,3.1,2.1,5,2.1
		c2.7,0,4-1,4-2.2c0-0.8-0.7-1.7-2.7-2.2c-0.3-0.1-2.4-0.6-2.7-0.7c-2.7-0.7-4.7-1.7-4.7-4c0-2.2,1.9-4.1,6.1-4.1
		c2.4,0,4.5,0.8,6,2.4l-1.6,1.6c-1-1.2-2.4-1.9-4.3-1.9c-2.8,0-3.8,1-3.8,2c0,0.9,0.9,1.5,3.4,2.1c0.3,0.1,2.1,0.6,2.4,0.6
		c3,0.8,4.3,2.3,4.3,4.1C180.7,246.5,179,248.7,174.6,248.7"/>
	<path clip-path="url(#SVGID_2_)" fill="#172929" d="M189.2,248.7c-2.4,0-5-0.8-6.7-2.5l1.6-1.6c1.7,1.5,3.1,2.1,5,2.1
		c2.7,0,4-1,4-2.2c0-0.8-0.7-1.7-2.7-2.2c-0.3-0.1-2.4-0.6-2.7-0.7c-2.7-0.7-4.7-1.7-4.7-4c0-2.2,1.9-4.1,6.1-4.1
		c2.4,0,4.5,0.8,6,2.4l-1.6,1.6c-1-1.2-2.4-1.9-4.3-1.9c-2.8,0-3.8,1-3.8,2c0,0.9,0.9,1.5,3.4,2.1c0.3,0.1,2.1,0.6,2.4,0.6
		c3,0.8,4.3,2.3,4.3,4.1C195.4,246.5,193.7,248.7,189.2,248.7"/>
	<polygon clip-path="url(#SVGID_2_)" fill="#172929" points="215.1,235.6 209.7,235.6 209.8,235.9 209.8,248.5 207.6,248.5 
		207.6,235.9 207.7,235.6 202.4,235.6 202.4,233.6 215.1,233.6 	"/>
	<path clip-path="url(#SVGID_2_)" fill="#172929" d="M229.7,248.5h-2.4l-1.6-3.5l0.1-0.2h-7.9l0.1,0.2l-1.6,3.5h-2.4l6.7-14.9h2.2
		L229.7,248.5z M224.8,242.8l-0.2-0.2l-2.3-5.1l-0.4-1.4h0l-0.4,1.3l-2.3,5.1l-0.2,0.2H224.8z"/>
	<path clip-path="url(#SVGID_2_)" fill="#172929" d="M244.5,248.5h-1.9v-1.9h0c-1,1.3-2.7,2.1-4.7,2.1c-4.8,0-7.5-2.9-7.5-7.5
		c0-4.7,2.8-7.8,7.6-7.8c2.1,0,4.3,0.6,5.9,2.3l-1.6,1.6c-1.1-1.4-2.7-1.8-4.3-1.8c-3.6,0-5.3,2.2-5.3,5.7c0,3.4,1.7,5.4,5.2,5.4
		c2.7,0,4.5-1.9,4.6-4.4l0.2-0.2h-5.1v-2h6.9V248.5z"/>
	<polygon clip-path="url(#SVGID_2_)" fill="#172929" points="258.3,248.5 247.8,248.5 247.8,233.6 250,233.6 250,246.2 249.8,246.5 
		258.3,246.5 	"/>
	<rect x="260.4" y="233.6" clip-path="url(#SVGID_2_)" fill="#172929" width="2.2" height="14.9"/>
	<polygon clip-path="url(#SVGID_2_)" fill="#172929" points="278.7,248.5 276.7,248.5 269.3,238.9 268.2,237.2 268.2,237.2 
		268.2,248.5 266,248.5 266,233.6 267.9,233.6 275.4,243.3 276.4,244.9 276.5,244.9 276.5,233.6 278.7,233.6 	"/>
	<polygon clip-path="url(#SVGID_2_)" fill="#172929" points="293.4,248.5 282,248.5 282,233.6 293.4,233.6 293.4,235.6 284,235.6 
		284.2,235.9 284.2,239.8 284,240 292.5,240 292.5,242.1 284,242.1 284.2,242.3 284.2,246.2 284,246.5 293.4,246.5 	"/>
	<path clip-path="url(#SVGID_2_)" fill="#172929" d="M315.4,248.5h-1.9v-1.9h0c-1,1.3-2.7,2.1-4.7,2.1c-4.8,0-7.5-2.9-7.5-7.5
		c0-4.7,2.8-7.8,7.6-7.8c2.1,0,4.3,0.6,5.9,2.3l-1.6,1.6c-1.1-1.4-2.7-1.8-4.3-1.8c-3.6,0-5.3,2.2-5.3,5.7c0,3.4,1.7,5.4,5.2,5.4
		c2.7,0,4.5-1.9,4.6-4.4l0.2-0.2h-5.1v-2h6.9V248.5z"/>
	<path clip-path="url(#SVGID_2_)" fill="#172929" d="M325.3,248.7c-4.7,0-7.2-3.1-7.2-7.5c0-4.5,2.5-7.7,7.2-7.7
		c4.7,0,7.2,3.2,7.2,7.7C332.5,245.6,330,248.7,325.3,248.7 M325.3,235.5c-3.5,0-4.9,2.5-4.9,5.7c0,3.1,1.4,5.5,4.9,5.5
		c3.5,0,4.9-2.4,4.9-5.5C330.3,238.1,328.9,235.5,325.3,235.5"/>
	<polygon clip-path="url(#SVGID_2_)" fill="#172929" points="346.6,248.5 335.2,248.5 335.2,233.6 346.6,233.6 346.6,235.6 
		337.2,235.6 337.4,235.9 337.4,239.8 337.2,240 345.7,240 345.7,242.1 337.2,242.1 337.4,242.3 337.4,246.2 337.2,246.5 
		346.6,246.5 	"/>
	<path clip-path="url(#SVGID_2_)" fill="#172929" d="M355.5,248.7c-2.4,0-5-0.8-6.7-2.5l1.6-1.6c1.7,1.5,3.1,2.1,5,2.1
		c2.7,0,4-1,4-2.2c0-0.8-0.7-1.7-2.7-2.2c-0.3-0.1-2.4-0.6-2.7-0.7c-2.7-0.7-4.7-1.7-4.7-4c0-2.2,1.9-4.1,6.1-4.1
		c2.4,0,4.5,0.8,6,2.4l-1.6,1.6c-1-1.2-2.4-1.9-4.3-1.9c-2.8,0-3.8,1-3.8,2c0,0.9,0.9,1.5,3.4,2.1c0.3,0.1,2.1,0.6,2.4,0.6
		c3,0.8,4.3,2.3,4.3,4.1C361.6,246.5,359.9,248.7,355.5,248.7"/>
	<polygon clip-path="url(#SVGID_2_)" fill="#172929" points="382.6,248.5 380.4,248.5 380.4,242.3 380.6,242.1 371.9,242.1 
		372.1,242.3 372.1,248.5 369.9,248.5 369.9,233.6 372.1,233.6 372.1,239.8 371.9,240 380.6,240 380.4,239.8 380.4,233.6 
		382.6,233.6 	"/>
	<polygon clip-path="url(#SVGID_2_)" fill="#172929" points="397.3,248.5 385.9,248.5 385.9,233.6 397.3,233.6 397.3,235.6 
		387.9,235.6 388.1,235.9 388.1,239.8 387.9,240 396.4,240 396.4,242.1 387.9,242.1 388.1,242.3 388.1,246.2 387.9,246.5 
		397.3,246.5 	"/>
	<path clip-path="url(#SVGID_2_)" fill="#172929" d="M413.6,248.5h-2.5l-1.9-3.9c-0.7-1.4-1.7-2-3.6-2h-3.3l0.2,0.2v5.8h-2.2v-14.9
		h6.7c2.8,0,5.2,1.5,5.2,4.5c0,1.8-1.3,3.2-2.8,3.8v0c0.6,0.3,1.3,0.9,1.7,1.8L413.6,248.5z M407,235.6h-4.8l0.2,0.2v4.4l-0.2,0.2
		h4.6c2.1,0,3.2-1,3.2-2.4C410,236.3,408.8,235.6,407,235.6"/>
	<polygon clip-path="url(#SVGID_2_)" fill="#172929" points="426.7,248.5 415.3,248.5 415.3,233.6 426.7,233.6 426.7,235.6 
		417.3,235.6 417.5,235.9 417.5,239.8 417.3,240 425.8,240 425.8,242.1 417.3,242.1 417.5,242.3 417.5,246.2 417.3,246.5 
		426.7,246.5 	"/>
	<path clip-path="url(#SVGID_2_)" fill="#E6E7E8" d="M304.8,59.3c3.1-0.6,6.2-1,9.4-1.3c-14-6.4-29.1-9.3-42.4-6
		c-36,9-62.4,86.2-108.8,81.8c0,0,0,0,0.1,0c24.9,10.2,47,5.2,61.4-8.8c15.9-15.4,24.8-34.8,37.7-45.8
		C261.6,79.2,281.2,63.2,304.8,59.3"/>
	<path clip-path="url(#SVGID_2_)" fill="#E6E7E8" d="M262.4,79c-0.2,0.2-0.4,0.3-0.3,0.3C262.2,79.2,262.3,79.1,262.4,79"/>
	<path clip-path="url(#SVGID_2_)" fill="#E6E7E8" d="M361,102.9c-1.3-3.6-3.1-7.3-5.6-11c-8.2-12.5-22.5-24.7-38.5-32.6
		c-0.9-0.5-1.8-0.9-2.8-1.3c-3.2,0.3-6.3,0.8-9.4,1.3c-23.5,3.8-43.2,19.9-42.7,19.9c0,0,0.1-0.1,0.3-0.3c5-4.2,10.1-7.3,15.5-8.9
		c0.7-0.2,1.5-0.4,2.2-0.6c1.2-0.2,2.4-0.4,3.7-0.4c7.7,0,17.8,4,27.1,9.9c8.7,5.6,16.6,12.8,21.1,20.1c5.1,8.1,5.6,16.2-1.2,22.3
		c-10.9,9.7-60.4-6.1-64.6-7.4c0,0,0,0,0,0c3.9,1.8,33.7,18.2,60.6,20c5.2,0.4,10.5,0.2,15.2-0.8c4.1-0.9,8-2.3,11.4-4.5
		C362.9,122.6,364.6,113.2,361,102.9"/>
	<path clip-path="url(#SVGID_2_)" fill="#E6E7E8" d="M139.9,117.8c-3.1,0.6-6.2,1-9.4,1.3c14,6.4,29.1,9.3,42.4,6
		c36-9,62.4-86.2,108.8-81.8c0,0,0,0-0.1,0c-24.9-10.2-47-5.2-61.4,8.8c-15.9,15.4-24.8,34.8-37.7,45.8
		C183.1,97.9,163.4,113.9,139.9,117.8"/>
	<path clip-path="url(#SVGID_2_)" fill="#E6E7E8" d="M182.2,98.1c0.2-0.2,0.4-0.3,0.3-0.3C182.4,97.9,182.3,98,182.2,98.1"/>
	<path clip-path="url(#SVGID_2_)" fill="#E6E7E8" d="M83.6,74.2c1.3,3.6,3.2,7.3,5.6,11c8.2,12.5,22.5,24.7,38.5,32.6
		c0.9,0.5,1.8,0.9,2.8,1.3c3.2-0.3,6.3-0.8,9.4-1.3c23.5-3.8,43.2-19.9,42.7-19.9c0,0-0.1,0.1-0.3,0.3c-5,4.2-10.1,7.3-15.5,8.9
		c-0.7,0.2-1.5,0.4-2.2,0.6c-1.2,0.2-2.4,0.4-3.7,0.4c-7.7,0-17.8-4-27.1-9.9c-8.6-5.5-16.6-12.8-21.1-20.1
		c-5.1-8.1-6-16.4,0.8-22.4c10.9-9.7,61,6.2,64.2,7.3c0,0,0,0,0,0c-2.4-1.3-33.3-18.1-60.2-19.9c-5.2-0.4-10.3-0.1-15,0.8
		c-4.1,0.9-7.9,2.3-11.3,4.5C81.7,54.4,80.1,63.9,83.6,74.2"/>
</g>
<g>
	<defs>
		<path id="SVGID_3_" d="M271.7,19.4c-36,12.4-62.4,118.4-108.8,112.4c0,0,0,0,0.1,0c24.9,14,47,7.2,61.4-12.1
			c15.9-21.1,24.8-47.8,37.7-62.9c-0.5,0,19.1-22.1,42.7-27.4c3.1-0.8,6.2-1.4,9.4-1.8c-10-6.3-20.6-10.1-30.7-10.1
			C279.4,17.5,275.5,18.1,271.7,19.4"/>
	</defs>
	<clipPath id="SVGID_4_">
		<use xlink:href="#SVGID_3_"  overflow="visible"/>
	</clipPath>
	
		<linearGradient id="SVGID_5_" gradientUnits="userSpaceOnUse" x1="0" y1="248.6765" x2="1" y2="248.6765" gradientTransform="matrix(21.8716 97.7928 97.9868 0.8358 -24149.2559 -219.0629)">
		<stop  offset="0" style="stop-color:#FFFFFF"/>
		<stop  offset="0.2545" style="stop-color:#87D5F5"/>
		<stop  offset="0.5818" style="stop-color:#00B8EE"/>
		<stop  offset="1" style="stop-color:#006AB5"/>
	</linearGradient>
	<polygon clip-path="url(#SVGID_4_)" fill="url(#SVGID_5_)" points="314.1,17.5 343.2,147.3 162.9,145.8 133.9,16 	"/>
</g>
<g>
	<defs>
		<rect id="SVGID_6_" width="447.9" height="248.7"/>
	</defs>
	<clipPath id="SVGID_7_">
		<use xlink:href="#SVGID_6_"  overflow="visible"/>
	</clipPath>
	<path clip-path="url(#SVGID_7_)" fill="#808080" d="M262.4,56.5c-0.2,0.2-0.4,0.4-0.3,0.4C262.2,56.7,262.3,56.6,262.4,56.5"/>
</g>
<g>
	<defs>
		<path id="SVGID_8_" d="M262.1,56.8C262.1,56.8,262.1,56.8,262.1,56.8C262.1,56.8,262.1,56.8,262.1,56.8 M304.8,29.4
			c-23.5,5.3-43.1,27.3-42.7,27.4c0,0,0.1-0.1,0.3-0.4c5-5.7,10.1-10,15.5-12.2c0.7-0.3,1.5-0.6,2.2-0.8c1.2-0.3,2.4-0.5,3.7-0.5
			c7.7,0,17.8,5.4,27.1,13.6c8.7,7.6,16.6,17.6,21.1,27.7c5.1,11.2,5.6,22.3-1.2,30.7c-10.9,13.4-60.5-8.3-64.6-10.2c0,0,0,0,0,0
			c3.9,2.5,33.7,25,60.6,27.5c5.2,0.5,10.5,0.3,15.2-1.1c4.1-1.2,8-3.1,11.4-6.2c9.5-8.6,11.2-21.6,7.6-35.7
			c-1.3-4.9-3.1-10-5.6-15.1c-8.2-17.1-22.5-34-38.5-44.8c-0.9-0.6-1.8-1.2-2.8-1.8C311,28.1,307.9,28.8,304.8,29.4"/>
	</defs>
	<clipPath id="SVGID_9_">
		<use xlink:href="#SVGID_8_"  overflow="visible"/>
	</clipPath>
	
		<radialGradient id="SVGID_10_" cx="0" cy="248.681" r="1" gradientTransform="matrix(-41.8398 -25.9147 -9.162 52.216 2585.9373 -12900.4854)" gradientUnits="userSpaceOnUse">
		<stop  offset="0" style="stop-color:#FFFFFF"/>
		<stop  offset="0.2545" style="stop-color:#87D5F5"/>
		<stop  offset="0.5818" style="stop-color:#00B8EE"/>
		<stop  offset="1" style="stop-color:#006AB5"/>
	</radialGradient>
	<polygon clip-path="url(#SVGID_9_)" fill="url(#SVGID_10_)" points="354.5,190.3 245,122.5 271.7,-29.9 381.2,37.9 	"/>
</g>
<g>
	<defs>
		<path id="SVGID_11_" d="M255.7,0c-14.1,0.1-26.3,7.3-35.5,19.5c-15.9,21.1-24.8,47.8-37.7,62.9c0.5,0-19.1,22.1-42.7,27.4
			c-3.1,0.8-6.2,1.4-9.4,1.8c14,8.8,29.1,12.8,42.4,8.2c36-12.4,62.4-118.4,108.8-112.4c0,0,0,0-0.1,0c-9-5-17.5-7.4-25.5-7.4H255.7
			z"/>
	</defs>
	<clipPath id="SVGID_12_">
		<use xlink:href="#SVGID_11_"  overflow="visible"/>
	</clipPath>
	
		<linearGradient id="SVGID_13_" gradientUnits="userSpaceOnUse" x1="0" y1="248.6628" x2="1" y2="248.6628" gradientTransform="matrix(44.4067 76.0587 69.8483 -26.7459 -17201.4531 6646.3276)">
		<stop  offset="0" style="stop-color:#FFFFFF"/>
		<stop  offset="0.2545" style="stop-color:#87D5F5"/>
		<stop  offset="0.5818" style="stop-color:#00B8EE"/>
		<stop  offset="1" style="stop-color:#006AB5"/>
	</linearGradient>
	<polygon clip-path="url(#SVGID_12_)" fill="url(#SVGID_13_)" points="254.1,-47.3 341,101.7 158.1,171.7 71.1,22.7 	"/>
</g>
<g>
	<defs>
		<rect id="SVGID_14_" width="447.9" height="248.7"/>
	</defs>
	<clipPath id="SVGID_15_">
		<use xlink:href="#SVGID_14_"  overflow="visible"/>
	</clipPath>
	<path clip-path="url(#SVGID_15_)" fill="#808080" d="M182.2,82.7c0.2-0.2,0.4-0.4,0.3-0.4C182.4,82.5,182.3,82.6,182.2,82.7"/>
</g>
<g>
	<defs>
		<path id="SVGID_16_" d="M182.5,82.4C182.5,82.4,182.5,82.4,182.5,82.4C182.5,82.4,182.5,82.4,182.5,82.4 M102.4,7.9
			c-4.1,1.2-7.9,3.2-11.3,6.2c-9.5,8.6-11.1,21.7-7.5,35.8c1.3,5,3.2,10,5.6,15.1c8.2,17.1,22.5,34,38.5,44.8
			c0.9,0.6,1.8,1.2,2.8,1.8c3.2-0.5,6.3-1.1,9.4-1.8c23.5-5.3,43.1-27.2,42.7-27.4c0,0-0.1,0.1-0.3,0.4c-5,5.7-10.1,10-15.5,12.2
			c-0.7,0.3-1.5,0.6-2.2,0.8c-1.2,0.3-2.4,0.5-3.7,0.5c-7.7,0-17.8-5.4-27.1-13.6c-8.6-7.6-16.6-17.6-21.1-27.7
			c-5.1-11.2-6-22.5,0.8-30.8c10.9-13.4,61,8.6,64.2,10c0,0,0,0,0,0c-2.4-1.8-33.3-24.8-60.2-27.4c-1.6-0.1-3.1-0.2-4.6-0.2
			C109.2,6.5,105.7,6.9,102.4,7.9"/>
	</defs>
	<clipPath id="SVGID_17_">
		<use xlink:href="#SVGID_16_"  overflow="visible"/>
	</clipPath>
	
		<radialGradient id="SVGID_18_" cx="0" cy="248.681" r="1" gradientTransform="matrix(51.5176 0 -20.6276 -51.5176 5275.5815 12883.0361)" gradientUnits="userSpaceOnUse">
		<stop  offset="0" style="stop-color:#FFFFFF"/>
		<stop  offset="0.2545" style="stop-color:#87D5F5"/>
		<stop  offset="0.5818" style="stop-color:#00B8EE"/>
		<stop  offset="1" style="stop-color:#006AB5"/>
	</radialGradient>
	<polygon clip-path="url(#SVGID_17_)" fill="url(#SVGID_18_)" points="38,6.5 182.9,6.5 225,111.6 80.1,111.6 	"/>
</g>
</svg>
