<?xml version="1.0" encoding="utf-8"?>
<!-- Generator: Adobe Illustrator 17.1.0, SVG Export Plug-In . SVG Version: 6.00 Build 0)  -->
<!DOCTYPE svg PUBLIC "-//W3C//DTD SVG 1.1//EN" "http://www.w3.org/Graphics/SVG/1.1/DTD/svg11.dtd">
<svg version="1.1" id="Layer_1" xmlns="http://www.w3.org/2000/svg" xmlns:xlink="http://www.w3.org/1999/xlink" x="0px" y="0px"
	 viewBox="0 0 322.3 234.8" enable-background="new 0 0 322.3 234.8" xml:space="preserve" width="104" height="75">
<g>
	<defs>
		<rect id="SVGID_1_" width="322.3" height="234.8"/>
	</defs>
	<clipPath id="SVGID_2_">
		<use xlink:href="#SVGID_1_"  overflow="visible"/>
	</clipPath>
	<g clip-path="url(#SVGID_2_)">
		<defs>
			<path id="SVGID_3_" d="M30.6,0l1.1,2.6C42.6,28.1,67,44.1,96.9,45.1h61.4c30,0,58,7.8,81.2,22.6l30.7,19.5
				c0,0-21.6-32.1-29.7-42.1C208.4,5.3,173.7,0,129.3,0H30.6z"/>
		</defs>
		<clipPath id="SVGID_4_">
			<use xlink:href="#SVGID_3_"  overflow="visible"/>
		</clipPath>
		
			<linearGradient id="SVGID_5_" gradientUnits="userSpaceOnUse" x1="0" y1="234.827" x2="1" y2="234.827" gradientTransform="matrix(176.6065 0 35.18 -176.6065 -8210.8311 41515.5781)">
			<stop  offset="0" style="stop-color:#FC0060"/>
			<stop  offset="1" style="stop-color:#9D005E"/>
		</linearGradient>
		<polygon clip-path="url(#SVGID_4_)" fill="url(#SVGID_5_)" points="30.6,0 287.5,0 270.1,87.2 13.2,87.2 		"/>
	</g>
	<g clip-path="url(#SVGID_2_)">
		<defs>
			<rect id="SVGID_6_" width="322.3" height="234.8"/>
		</defs>
		<clipPath id="SVGID_7_">
			<use xlink:href="#SVGID_6_"  overflow="visible"/>
		</clipPath>
		<g clip-path="url(#SVGID_7_)">
			<g>
				<defs>
					<rect id="SVGID_8_" x="51.7" y="29" width="218.5" height="58.2"/>
				</defs>
				<clipPath id="SVGID_9_">
					<use xlink:href="#SVGID_8_"  overflow="visible"/>
				</clipPath>
				<g clip-path="url(#SVGID_9_)">
					<defs>
						<path id="SVGID_10_" d="M159.7,29h-108c12.1,9.8,27.7,15.5,45.2,16.1h61.4c30,0,58,7.8,81.2,22.6l30.7,19.5
							c0,0-18.4-27.3-27.6-39.4C218.2,31.8,191.4,29,159.7,29"/>
					</defs>
					<clipPath id="SVGID_11_">
						<use xlink:href="#SVGID_10_"  overflow="visible"/>
					</clipPath>
					
						<linearGradient id="SVGID_12_" gradientUnits="userSpaceOnUse" x1="0" y1="234.827" x2="1" y2="234.827" gradientTransform="matrix(158.159 0 31.5053 -158.159 -7326.9297 37198.1094)">
						<stop  offset="0" style="stop-color:#FFFFFF"/>
						<stop  offset="1" style="stop-color:#9D005E"/>
					</linearGradient>
					<polygon clip-path="url(#SVGID_11_)" fill="url(#SVGID_12_)" points="51.7,29 281.7,29 270.1,87.2 40.1,87.2 					"/>
				</g>
			</g>
		</g>
		<g clip-path="url(#SVGID_7_)">
			<g>
				<defs>
					<rect id="SVGID_13_" x="49.6" y="27.3" width="218.2" height="56.5"/>
				</defs>
				<clipPath id="SVGID_14_">
					<use xlink:href="#SVGID_13_"  overflow="visible"/>
				</clipPath>
				<g clip-path="url(#SVGID_14_)">
					<g>
						<defs>
							<rect id="SVGID_15_" x="267.8" y="83.8" width="0" height="0"/>
						</defs>
						<clipPath id="SVGID_16_">
							<use xlink:href="#SVGID_15_"  overflow="visible"/>
						</clipPath>
						<g clip-path="url(#SVGID_16_)">
							<defs>
								<path id="SVGID_17_" d="M267.8,83.8L267.8,83.8C267.8,83.8,267.8,83.8,267.8,83.8C267.8,83.8,267.8,83.8,267.8,83.8"/>
							</defs>
							<clipPath id="SVGID_18_">
								<use xlink:href="#SVGID_17_"  overflow="visible"/>
							</clipPath>
							
								<linearGradient id="SVGID_19_" gradientUnits="userSpaceOnUse" x1="0" y1="234.8143" x2="1" y2="234.8143" gradientTransform="matrix(2.766640e-002 0 5.511100e-003 -2.766640e-002 266.5103 90.2735)">
								<stop  offset="0" style="stop-color:#000000"/>
								<stop  offset="1" style="stop-color:#9D005E"/>
							</linearGradient>
							<polygon clip-path="url(#SVGID_18_)" fill="url(#SVGID_19_)" points="267.8,83.8 267.8,83.8 267.8,83.8 267.8,83.8 							
								"/>
						</g>
					</g>
				</g>
				<g clip-path="url(#SVGID_14_)">
					<g>
						<defs>
							<rect id="SVGID_20_" x="49.6" y="27.3" width="218.1" height="56.3"/>
						</defs>
						<clipPath id="SVGID_21_">
							<use xlink:href="#SVGID_20_"  overflow="visible"/>
						</clipPath>
						<g clip-path="url(#SVGID_21_)">
							<defs>
								<path id="SVGID_22_" d="M160,27.3H49.6c0.7,0.6,1.4,1.2,2,1.7h108c31.7,0,58.5,2.7,82.9,18.8c7.1,9.4,19.8,28,25.2,35.8
									c-0.2-0.2-0.3-0.5-0.5-0.8c0-0.1-0.1-0.1-0.1-0.2c-0.5-0.8-1.1-1.6-1.7-2.6c-0.1-0.1-0.2-0.2-0.2-0.3
									c-0.2-0.2-0.3-0.5-0.5-0.7c-0.1-0.2-0.3-0.4-0.4-0.6c-0.1-0.2-0.3-0.4-0.4-0.6c-0.2-0.3-0.4-0.6-0.6-0.9
									c-0.1-0.2-0.2-0.3-0.3-0.5c-0.3-0.5-0.7-1-1-1.5c0,0,0-0.1-0.1-0.1c-0.3-0.4-0.6-0.9-0.9-1.4c-0.1-0.2-0.2-0.3-0.3-0.5
									c-0.3-0.4-0.6-0.9-0.9-1.3c0-0.1-0.1-0.1-0.1-0.2c-0.3-0.5-0.7-1-1-1.5c0-0.1-0.1-0.1-0.1-0.2c-0.8-1.1-1.6-2.2-2.4-3.4
									c0-0.1-0.1-0.1-0.1-0.2c-0.4-0.5-0.7-1-1.1-1.5c0-0.1-0.1-0.1-0.1-0.2c-0.8-1.2-1.6-2.3-2.4-3.5c0,0,0-0.1-0.1-0.1
									c-0.4-0.5-0.7-1-1.1-1.5c-0.1-0.1-0.2-0.2-0.3-0.4c-0.3-0.4-0.6-0.9-0.9-1.3c-0.1-0.1-0.2-0.2-0.3-0.4
									c-0.8-1.1-1.5-2.1-2.2-3.1c-0.1-0.1-0.1-0.2-0.2-0.3c-0.3-0.4-0.6-0.8-0.8-1.2c-0.1-0.1-0.2-0.3-0.3-0.4
									c-0.3-0.4-0.5-0.7-0.8-1.1c-0.1-0.1-0.2-0.2-0.3-0.3c-0.3-0.4-0.6-0.9-0.9-1.3c0,0,0,0,0,0c-0.3-0.4-0.6-0.8-0.9-1.2
									c-0.1-0.1-0.2-0.2-0.2-0.3c-0.2-0.3-0.4-0.6-0.6-0.8c-0.1-0.1-0.2-0.2-0.3-0.4c-0.2-0.3-0.4-0.5-0.6-0.7
									c-0.1-0.1-0.2-0.2-0.2-0.3c-0.3-0.3-0.5-0.6-0.7-0.9c-0.3-0.4-0.6-0.7-0.9-1.1C216,29.8,190.3,27.3,160,27.3"/>
							</defs>
							<clipPath id="SVGID_23_">
								<use xlink:href="#SVGID_22_"  overflow="visible"/>
							</clipPath>
							
								<linearGradient id="SVGID_24_" gradientUnits="userSpaceOnUse" x1="0" y1="234.827" x2="1" y2="234.827" gradientTransform="matrix(157.637 0 31.4013 -157.637 -7304.4595 37072.8828)">
								<stop  offset="0" style="stop-color:#000000"/>
								<stop  offset="1" style="stop-color:#9D005E"/>
							</linearGradient>
							<polygon clip-path="url(#SVGID_23_)" fill="url(#SVGID_24_)" points="49.6,27.3 278.9,27.3 267.7,83.6 38.4,83.6 							"/>
						</g>
					</g>
				</g>
			</g>
		</g>
	</g>
	<g clip-path="url(#SVGID_2_)">
		<defs>
			<path id="SVGID_25_" d="M124.9,101.9l0.6,1.5c6.1,14.4,19.9,23.4,36.8,24h99.8c-15.4-16.3-37.6-25.4-62.7-25.4H124.9z"/>
		</defs>
		<clipPath id="SVGID_26_">
			<use xlink:href="#SVGID_25_"  overflow="visible"/>
		</clipPath>
		
			<linearGradient id="SVGID_27_" gradientUnits="userSpaceOnUse" x1="0" y1="234.827" x2="1" y2="234.827" gradientTransform="matrix(97.8232 0 -19.4864 97.8232 4714.0703 -22856.9063)">
			<stop  offset="0" style="stop-color:#5D9CF5"/>
			<stop  offset="1" style="stop-color:#204AAC"/>
		</linearGradient>
		<polygon clip-path="url(#SVGID_26_)" fill="url(#SVGID_27_)" points="119.8,127.3 262.1,127.3 267.2,101.9 124.9,101.9 		"/>
	</g>
	<g clip-path="url(#SVGID_2_)">
		<defs>
			<rect id="SVGID_28_" width="322.3" height="234.8"/>
		</defs>
		<clipPath id="SVGID_29_">
			<use xlink:href="#SVGID_28_"  overflow="visible"/>
		</clipPath>
		<g clip-path="url(#SVGID_29_)">
			<g>
				<defs>
					<rect id="SVGID_30_" x="124.9" y="101.9" width="137.2" height="25.4"/>
				</defs>
				<clipPath id="SVGID_31_">
					<use xlink:href="#SVGID_30_"  overflow="visible"/>
				</clipPath>
				<g clip-path="url(#SVGID_31_)">
					<defs>
						<path id="SVGID_32_" d="M244.8,113.6h-91.4c-11.3-0.4-21.3-4.6-28.5-11.7h0l0.6,1.5c6.1,14.4,19.9,23.4,36.8,24h99.8
							C257,122,251.2,117.4,244.8,113.6"/>
					</defs>
					<clipPath id="SVGID_33_">
						<use xlink:href="#SVGID_32_"  overflow="visible"/>
					</clipPath>
					
						<linearGradient id="SVGID_34_" gradientUnits="userSpaceOnUse" x1="0" y1="234.827" x2="1" y2="234.827" gradientTransform="matrix(97.8232 0 19.4864 -97.8232 -4437.7856 23086.1426)">
						<stop  offset="0" style="stop-color:#5D9CF5"/>
						<stop  offset="1" style="stop-color:#FFFFFF"/>
					</linearGradient>
					<polygon clip-path="url(#SVGID_33_)" fill="url(#SVGID_34_)" points="124.9,101.9 267.2,101.9 262.1,127.3 119.8,127.3 					
						"/>
				</g>
			</g>
		</g>
		<g clip-path="url(#SVGID_29_)">
			<g>
				<defs>
					<rect id="SVGID_35_" x="124.9" y="101.9" width="122.8" height="13.5"/>
				</defs>
				<clipPath id="SVGID_36_">
					<use xlink:href="#SVGID_35_"  overflow="visible"/>
				</clipPath>
				<g clip-path="url(#SVGID_36_)">
					<defs>
						<path id="SVGID_37_" d="M126.5,105.5c7,6,16.1,9.6,26.5,9.9h94.7c-1-0.6-2-1.2-3-1.8h-91.4c-11.3-0.4-21.3-4.6-28.5-11.7h0
							l0.6,1.5C125.8,104.1,126.2,104.8,126.5,105.5"/>
					</defs>
					<clipPath id="SVGID_38_">
						<use xlink:href="#SVGID_37_"  overflow="visible"/>
					</clipPath>
					
						<linearGradient id="SVGID_39_" gradientUnits="userSpaceOnUse" x1="0" y1="234.827" x2="1" y2="234.827" gradientTransform="matrix(86.2933 0 17.1896 -86.2933 -3899.1213 20372.6777)">
						<stop  offset="0" style="stop-color:#5D9CF5"/>
						<stop  offset="1" style="stop-color:#000000"/>
					</linearGradient>
					<polygon clip-path="url(#SVGID_38_)" fill="url(#SVGID_39_)" points="124.9,101.9 250.4,101.9 247.7,115.4 122.2,115.4 					
						"/>
				</g>
			</g>
		</g>
	</g>
	<g clip-path="url(#SVGID_2_)">
		<defs>
			<path id="SVGID_40_" d="M25.2,40.1l1.1,2.6c10.9,25.5,35.3,41.5,65.2,42.5h94.9c30,0,58,7.8,81.2,22.6l30.7,19.5
				c0,0-21.6-32.1-29.7-42.1c-32.1-39.8-66.7-45.1-111.1-45.1H25.2z"/>
		</defs>
		<clipPath id="SVGID_41_">
			<use xlink:href="#SVGID_40_"  overflow="visible"/>
		</clipPath>
		
			<linearGradient id="SVGID_42_" gradientUnits="userSpaceOnUse" x1="0" y1="234.827" x2="1" y2="234.827" gradientTransform="matrix(199.6772 0 39.7757 -199.6772 -9291.708 46973.3438)">
			<stop  offset="0" style="stop-color:#F87C0A"/>
			<stop  offset="1" style="stop-color:#FD1547"/>
		</linearGradient>
		<polygon clip-path="url(#SVGID_41_)" fill="url(#SVGID_42_)" points="25.2,40.1 315.7,40.1 298.3,127.3 7.8,127.3 		"/>
	</g>
	<g clip-path="url(#SVGID_2_)">
		<defs>
			<rect id="SVGID_43_" width="322.3" height="234.8"/>
		</defs>
		<clipPath id="SVGID_44_">
			<use xlink:href="#SVGID_43_"  overflow="visible"/>
		</clipPath>
		<g clip-path="url(#SVGID_44_)">
			<g>
				<defs>
					<rect id="SVGID_45_" x="35.5" y="58.3" width="262.8" height="69"/>
				</defs>
				<clipPath id="SVGID_46_">
					<use xlink:href="#SVGID_45_"  overflow="visible"/>
				</clipPath>
				<g clip-path="url(#SVGID_46_)">
					<defs>
						<path id="SVGID_47_" d="M298.3,127.3c0,0-3-4.5-7.2-10.6c-3.9-5.4-7.4-10.3-9.8-13.3c-32.1-39.8-66.7-45.1-111.1-45.1H35.5
							c12.8,16.3,32.8,26.1,56,26.9h94.9c30,0,58,7.8,81.2,22.6L298.3,127.3z"/>
					</defs>
					<clipPath id="SVGID_48_">
						<use xlink:href="#SVGID_47_"  overflow="visible"/>
					</clipPath>
					
						<linearGradient id="SVGID_49_" gradientUnits="userSpaceOnUse" x1="0" y1="234.827" x2="1" y2="234.827" gradientTransform="matrix(159.5843 0 31.7892 -159.5843 -7347.7695 37567.5156)">
						<stop  offset="0" style="stop-color:#FFFFFF"/>
						<stop  offset="1" style="stop-color:#FD1547"/>
					</linearGradient>
					<polygon clip-path="url(#SVGID_48_)" fill="url(#SVGID_49_)" points="35.5,58.3 312,58.3 298.3,127.3 21.8,127.3 					"/>
				</g>
			</g>
		</g>
		<g clip-path="url(#SVGID_44_)">
			<g>
				<defs>
					<rect id="SVGID_50_" x="35.5" y="58.3" width="262.8" height="69"/>
				</defs>
				<clipPath id="SVGID_51_">
					<use xlink:href="#SVGID_50_"  overflow="visible"/>
				</clipPath>
				<g clip-path="url(#SVGID_51_)">
					<defs>
						<path id="SVGID_52_" d="M169.6,60.7c44.4,0,79.1,5.3,111.1,45.1c2.4,3,6,7.9,9.8,13.3c1.5,2.2,2.9,4.2,4,5.9l3.7,2.4
							c0,0-3-4.5-7.2-10.6c-3.9-5.4-7.4-10.3-9.8-13.3c-32.1-39.8-66.7-45.1-111.1-45.1H35.5c0.6,0.8,1.3,1.6,2,2.4H169.6z"/>
					</defs>
					<clipPath id="SVGID_53_">
						<use xlink:href="#SVGID_52_"  overflow="visible"/>
					</clipPath>
					
						<linearGradient id="SVGID_54_" gradientUnits="userSpaceOnUse" x1="0" y1="234.827" x2="1" y2="234.827" gradientTransform="matrix(-249.9261 0 -49.7853 249.9261 12040.5537 -58596.5703)">
						<stop  offset="0" style="stop-color:#FD9300"/>
						<stop  offset="1" style="stop-color:#000000"/>
					</linearGradient>
					<polygon clip-path="url(#SVGID_53_)" fill="url(#SVGID_54_)" points="298.3,127.3 21.8,127.3 35.5,58.3 312,58.3 					"/>
				</g>
			</g>
		</g>
		<g clip-path="url(#SVGID_44_)">
			<text transform="matrix(1 0 0 1 0 204.1356)"><tspan x="0" y="0" fill="#2F2F2F" font-family="'FuturaBT-BoldItalic'" font-size="60.1367" letter-spacing="5">DE</tspan><tspan x="80.5" y="0" fill="#2F2F2F" font-family="'FuturaBT-BoldItalic'" font-size="60.1367" letter-spacing="5">LIV</tspan><tspan x="172.8" y="0" fill="#2F2F2F" font-family="'FuturaBT-BoldItalic'" font-size="60.1367" letter-spacing="5">E</tspan><tspan x="207.8" y="0" fill="#2F2F2F" font-family="'FuturaBT-BoldItalic'" font-size="60.1367" letter-spacing="5">R</tspan><tspan x="245.5" y="0" fill="#2F2F2F" font-family="'FuturaBT-BoldItalic'" font-size="60.1367">Y</tspan></text>
		</g>
		<g clip-path="url(#SVGID_44_)">
			<text transform="matrix(1 0 0 1 53.957 229.995)"><tspan x="0" y="0" fill="#6F6F6F" font-family="'FuturaFuturis-Medium'" font-size="16" letter-spacing="3">Y</tspan><tspan x="12.2" y="0" fill="#6F6F6F" font-family="'FuturaFuturis-Medium'" font-size="16" letter-spacing="4">OUR </tspan><tspan x="61.6" y="0" fill="#6F6F6F" font-family="'FuturaFuturis-Medium'" font-size="16" letter-spacing="3">T</tspan><tspan x="73" y="0" fill="#6F6F6F" font-family="'FuturaFuturis-Medium'" font-size="16" letter-spacing="3">A</tspan><tspan x="86.6" y="0" fill="#6F6F6F" font-family="'FuturaFuturis-Medium'" font-size="16" letter-spacing="4">GLINE HER</tspan><tspan x="193" y="0" fill="#6F6F6F" font-family="'FuturaFuturis-Medium'" font-size="16">E</tspan></text>
		</g>
	</g>
</g>
</svg>
