<?xml version="1.0" encoding="utf-8"?>
<!-- Generator: Adobe Illustrator 17.1.0, SVG Export Plug-In . SVG Version: 6.00 Build 0)  -->
<!DOCTYPE svg PUBLIC "-//W3C//DTD SVG 1.1//EN" "http://www.w3.org/Graphics/SVG/1.1/DTD/svg11.dtd">
<svg version="1.1" id="Layer_1" xmlns="http://www.w3.org/2000/svg" xmlns:xlink="http://www.w3.org/1999/xlink" x="0px" y="0px"
	 viewBox="0 0 617.4 340.3" enable-background="new 0 0 617.4 340.3" xml:space="preserve" width="139" height="77">
<g>
	<defs>
		<rect id="SVGID_1_" width="617.4" height="340.3"/>
	</defs>
	<clipPath id="SVGID_2_">
		<use xlink:href="#SVGID_1_"  overflow="visible"/>
	</clipPath>
	<path clip-path="url(#SVGID_2_)" fill="#535D60" d="M315.5,110.2c0.1-0.4,0.5-0.4,0.5-0.4s9.8-2.9,22.2-2.5
		c12.6,0.4,22.4,6.8,20.3,18.9c-1.5,8.8-9.1,21.3-31.2,20.4l-0.7,4c-1.8,13.1,4.5,10.3,3.2,12.6c-1.6,3-7.4,6.7-12.3,6.7
		c-6.7,0-11.7-4.2-9.8-14.5L315.5,110.2z M332.5,116.2l-3.9,21.9c6.6,0,11.6-6,12.6-12.1C342.4,119.9,338.9,115.2,332.5,116.2"/>
	<path clip-path="url(#SVGID_2_)" fill="#535D60" d="M401.1,163.8c-1.4,2.6-6.4,5.8-11.1,5.8c-6.7,0-11.2-4.8-9.9-12.6
		c0.5-2.8,1.8-10.3,2.8-16c1.5-8.3-7.4-5.4-9.3,4.4c-2.2,12.2-3.9,22.2-3.9,22.2c-0.1,0.4-0.4,0.5-0.4,0.5h-15.9
		c0,0-0.3-0.1-0.2-0.4c0,0,8.4-49.8,10-58.7c0-0.3,0.3-0.3,0.3-0.3h16.3c0,0,0.3-0.1,0.2,0.3c-1.1,6-2.6,14.6-4.4,25
		c4.8-6.8,11.1-9.3,15.4-9.3c6.1,0,10.4,5.4,8.9,13.6c-0.6,3.5-1.2,6.7-2.2,12.9C395.5,164.3,402.3,161.5,401.1,163.8"/>
	<path clip-path="url(#SVGID_2_)" fill="#535D60" d="M422,169.9c-13.3,0-21.3-10-19.2-22.5c2.1-12.4,13.7-22.5,27-22.5
		c13.3,0,21.4,10.1,19.3,22.5C446.9,159.9,435.5,169.9,422,169.9 M423.5,160.5c5,0,7.9-5.9,9.3-13.1c1.2-7.1,0.2-13.1-4.5-13.1
		c-4.9,0-7.9,6-9.2,13.1C417.8,154.3,418.8,160.5,423.5,160.5"/>
	<path clip-path="url(#SVGID_2_)" fill="#535D60" d="M491.4,156.5c-1.6,3.5-10.2,13.2-22.2,13.2c-12.5,0-20.6-10.1-18.4-22.6
		c2.1-12.1,13.3-22.5,27.5-22.5c13.6,0,17.9,8.5,16.9,14.4c-2.3,13-17.7,14.5-28.2,12.7c1.4,8.3,12.2,9.1,23.3,3.5
		c0.4-0.2,0.8-0.3,1.1-0.1C491.7,155.4,491.7,155.8,491.4,156.5 M467.5,144.5c7.3,0.7,11.4-2.1,12.2-6.5c0.4-2.2-1.1-4.1-3.6-4
		c0,0-0.1,0.1-0.2,0.1h-0.2c-0.6,0.1-1.3,0.3-2.1,0.7C470.5,136.5,468.6,140.5,467.5,144.5"/>
	<path clip-path="url(#SVGID_2_)" fill="#535D60" d="M542.2,163.8c-1.4,2.6-6.4,5.8-11,5.8c-6.6,0-11.3-4.8-10-12.6
		c0.5-2.8,1.8-10.3,2.9-16c1.4-8.3-7.4-5.4-9.3,4.4c-1.7,9.4-3.9,22.2-3.9,22.2c-0.1,0.4-0.5,0.5-0.5,0.5h-16.5c0,0-0.3-0.1-0.2-0.4
		c0,0,4-18.8,5-24.6c2.3-13.1-3.9-10.3-2.6-12.6c1.3-2.6,6.3-5.9,10.9-5.9c5.8,0,9.7,3.6,9.7,9.7c4.9-7.1,11.2-9.7,15.6-9.7
		c6.2,0,10.5,5.4,9,13.6c-0.6,3.5-1.2,6.7-2.3,12.9C536.5,164.3,543.4,161.5,542.2,163.8"/>
	<path clip-path="url(#SVGID_2_)" fill="#535D60" d="M560.8,168h-16.4c0,0-0.3-0.1-0.3-0.4c0,0,4-18.8,5-24.6
		c2.3-13.1-3.7-10.3-2.7-12.6c1.4-2.6,6.4-5.9,11.1-5.9c6.7,0,10.7,4.8,9.3,12.6c-1.2,6.4-5.4,30.3-5.4,30.3
		C561.2,167.9,560.8,168,560.8,168 M558.9,122.4c-5.3,0-9-3.4-8.3-7.7c0.7-4.2,5.7-7.7,11-7.7s9,3.5,8.3,7.7
		C569.2,119,564.2,122.4,558.9,122.4"/>
	<path clip-path="url(#SVGID_2_)" fill="#535D60" d="M611.8,167.5c0.1,0.2,0,0.5-0.3,0.5h-18.3c-0.3,0-0.6-0.2-0.7-0.4l-6.7-14.3
		c-7.4,1.9-0.8,9.9-1,10.7c-0.4,2.7-5,5.9-9.6,5.9c-6.6,0-10.1-4-9.3-9.7c1-7.3,6.2-11.8,16.4-14.1l-10.1-19.3
		c-0.1-0.2,0.2-0.4,0.3-0.4h17.9c0.2,0,0.5,0.2,0.6,0.4l6.8,14.1c6.9-1.9,0.4-9.5,0.5-10.1c0.4-2.7,5-5.8,9.6-5.8
		c6.6,0,10.3,4.5,9.3,10.2c-1.2,6.3-8.2,10.7-16,12.3L611.8,167.5z"/>
	<path clip-path="url(#SVGID_2_)" fill="#5E6A72" d="M315.1,186.6l-3.3,14.9h-2l3.3-14.9h-2.9l0.4-1.7h2.9l0.5-2.4
		c0.3-1.2,0.7-2.2,1.4-2.9c0.7-0.7,1.7-1.1,3.1-1.1c0.4,0,0.7,0,1.1,0c0.3,0,0.7,0.1,1,0.2l-0.4,1.7c-0.2,0-0.4-0.1-0.6-0.1
		c-0.2,0-0.4-0.1-0.6-0.1c-0.9,0-1.6,0.2-2,0.6c-0.4,0.4-0.7,1-0.9,1.8l-0.5,2.3h3.3l-0.4,1.7H315.1z"/>
	<polygon clip-path="url(#SVGID_2_)" fill="#5E6A72" points="325.9,178.5 320.9,201.5 319,201.5 323.9,178.5 	"/>
	<path clip-path="url(#SVGID_2_)" fill="#5E6A72" d="M327.4,205.9c0.6,0,1.1-0.2,1.6-0.6c0.4-0.4,0.8-0.8,1-1.2l1.5-2.6l-3.1-16.6
		h2.1l2.4,14.1h0.1l7.7-14.1h2.2L331,205.4c-0.9,1.5-2.2,2.2-4,2.2c-0.3,0-0.6,0-0.9-0.1c-0.3,0-0.6-0.1-0.9-0.1l0.4-1.6
		C326.2,205.9,326.8,205.9,327.4,205.9"/>
	<path clip-path="url(#SVGID_2_)" fill="#5E6A72" d="M348.9,184.9l-3.6,16.6h-2l3.5-16.6H348.9z M350.3,178.5l-0.7,3.3h-2l0.7-3.3
		H350.3z"/>
	<path clip-path="url(#SVGID_2_)" fill="#5E6A72" d="M356.5,184.9l-0.6,3h0.1c0.6-1,1.5-1.8,2.5-2.5c1-0.7,2.2-1,3.4-1
		c0.7,0,1.4,0.1,2,0.3s1.1,0.4,1.6,0.8c0.5,0.4,0.8,0.8,1,1.4c0.2,0.6,0.4,1.3,0.4,2c0,0.5-0.1,1.1-0.3,2l-2.3,10.7h-2l2.3-10.7
		c0.1-0.3,0.1-0.5,0.2-0.8c0-0.3,0.1-0.6,0.1-0.9c0-0.6-0.1-1-0.3-1.4c-0.2-0.4-0.5-0.7-0.8-0.9c-0.3-0.2-0.7-0.4-1.1-0.5
		c-0.4-0.1-0.9-0.2-1.3-0.2c-0.7,0-1.4,0.2-2.1,0.5c-0.7,0.3-1.3,0.8-1.9,1.4c-0.6,0.6-1.1,1.3-1.5,2.2c-0.4,0.8-0.8,1.8-1,2.9
		l-1.8,8.5h-2l3.5-16.6H356.5z"/>
	<path clip-path="url(#SVGID_2_)" fill="#5E6A72" d="M383.5,203.5c-0.4,1.1-1,1.9-1.6,2.6c-0.6,0.7-1.4,1.2-2.3,1.5
		c-0.9,0.3-2,0.5-3.3,0.5c-0.9,0-1.7-0.1-2.4-0.3c-0.8-0.2-1.4-0.5-2-0.9c-0.6-0.4-1-1-1.4-1.7c-0.3-0.7-0.5-1.5-0.5-2.5h2
		c0,0.7,0.1,1.3,0.4,1.8c0.3,0.5,0.6,0.8,1,1.1c0.4,0.3,0.9,0.5,1.5,0.6c0.6,0.1,1.1,0.2,1.7,0.2c0.9,0,1.6-0.1,2.2-0.4
		c0.6-0.3,1.2-0.6,1.6-1.1c0.4-0.5,0.8-1,1.1-1.6c0.3-0.6,0.5-1.2,0.7-1.8c0.2-0.6,0.4-1.2,0.5-1.8c0.1-0.6,0.3-1.1,0.4-1.6
		l-0.1-0.1c-0.6,1-1.4,1.7-2.4,2.3c-1.1,0.5-2.1,0.8-3.3,0.8c-1,0-1.9-0.2-2.6-0.5c-0.8-0.3-1.4-0.8-1.9-1.4
		c-0.5-0.6-0.9-1.3-1.2-2.1c-0.3-0.8-0.4-1.7-0.4-2.7c0-1.2,0.2-2.4,0.6-3.6c0.4-1.2,0.9-2.3,1.7-3.2c0.7-0.9,1.6-1.7,2.7-2.3
		c1.1-0.6,2.2-0.9,3.6-0.9c0.6,0,1.2,0.1,1.8,0.2c0.6,0.2,1.2,0.4,1.7,0.7c0.5,0.3,0.9,0.7,1.3,1.2c0.3,0.5,0.6,1.1,0.7,1.7h0.1
		l0.7-3.4h1.9l-3.2,14.9C384.3,201.2,383.9,202.5,383.5,203.5 M373.4,196.3c0.2,0.6,0.4,1.2,0.8,1.7c0.4,0.5,0.8,0.9,1.4,1.1
		c0.6,0.3,1.2,0.4,2,0.4c1,0,2-0.3,2.8-0.8c0.8-0.5,1.5-1.2,2.1-2c0.6-0.8,1-1.7,1.3-2.7c0.3-1,0.5-1.9,0.5-2.8c0-0.7-0.1-1.4-0.2-2
		c-0.2-0.6-0.4-1.2-0.8-1.6c-0.4-0.4-0.8-0.8-1.4-1.1c-0.6-0.3-1.3-0.4-2.1-0.4c-1,0-2,0.2-2.8,0.7c-0.8,0.5-1.5,1.1-2.1,1.9
		c-0.6,0.8-1,1.7-1.3,2.6c-0.3,1-0.4,1.9-0.4,2.8C373.2,195,373.3,195.6,373.4,196.3"/>
	<path clip-path="url(#SVGID_2_)" fill="#5E6A72" d="M405.9,184.9l-0.6,2.9l0.1,0.1c0.6-1,1.4-1.8,2.4-2.4c1-0.7,2.2-1,3.4-1
		c1.2,0,2.1,0.3,2.8,0.9c0.7,0.6,1.1,1.5,1.2,2.7h0.1c0.6-1,1.5-1.9,2.5-2.5c1-0.7,2.1-1,3.4-1c1.6,0,2.8,0.4,3.5,1.2
		c0.7,0.8,1.1,1.9,1.1,3.2c0,0.3,0,0.6-0.1,0.9c0,0.3-0.1,0.6-0.2,1l-2.3,10.8h-2l2.4-10.9c0.1-0.6,0.2-1.1,0.2-1.7
		c0-0.8-0.3-1.5-0.8-2c-0.5-0.5-1.3-0.8-2.4-0.8c-0.9,0-1.6,0.2-2.3,0.6c-0.7,0.4-1.2,1-1.7,1.7c-0.5,0.7-0.9,1.5-1.2,2.4
		c-0.3,0.9-0.6,1.9-0.8,3l-1.6,7.7h-2l2.3-10.8c0.1-0.6,0.2-1.1,0.2-1.6c0-0.8-0.2-1.5-0.7-2.1c-0.4-0.6-1.2-0.9-2.1-0.9
		c-0.7,0-1.4,0.2-2.1,0.5c-0.7,0.4-1.3,0.9-1.8,1.5c-0.5,0.6-1,1.4-1.4,2.2c-0.4,0.8-0.7,1.8-0.9,2.7l-1.8,8.4h-2l3.5-16.6H405.9z"
		/>
	<path clip-path="url(#SVGID_2_)" fill="#5E6A72" d="M432.3,187.4c0.4-0.7,0.9-1.3,1.6-1.7c0.6-0.4,1.3-0.8,2.1-1
		c0.8-0.2,1.6-0.3,2.5-0.3c0.6,0,1.2,0.1,1.9,0.2c0.7,0.1,1.3,0.3,1.9,0.6c0.6,0.3,1.1,0.7,1.4,1.1c0.4,0.5,0.6,1.1,0.6,1.8
		c0,0.4,0,0.9-0.1,1.4c-0.1,0.5-0.2,1-0.3,1.5c-0.1,0.5-0.2,1-0.3,1.5c-0.1,0.5-0.2,0.9-0.3,1.3c-0.2,0.9-0.4,1.7-0.5,2.3
		c-0.1,0.6-0.3,1.1-0.3,1.5s-0.2,0.7-0.2,1c0,0.3-0.1,0.5-0.1,0.8c0,0.3,0.1,0.5,0.4,0.6c0.2,0.1,0.5,0.1,0.7,0.1c0.1,0,0.3,0,0.4,0
		c0.1,0,0.3,0,0.4,0l-0.3,1.6c-0.5,0.1-1.1,0.2-1.7,0.2c-1.1,0-1.7-0.6-1.8-1.8c0-0.2,0-0.3,0-0.5c0-0.1,0-0.3,0-0.5l-0.1-0.1
		c-0.6,1-1.4,1.7-2.4,2.2c-1.1,0.5-2.2,0.8-3.3,0.8c-0.8,0-1.5-0.1-2.1-0.3c-0.6-0.2-1.2-0.4-1.7-0.8c-0.5-0.4-0.8-0.8-1.1-1.4
		c-0.3-0.6-0.4-1.3-0.4-2.1c0-0.9,0.2-1.6,0.5-2.2c0.3-0.6,0.7-1.1,1.3-1.5c0.5-0.4,1.1-0.7,1.8-0.9c0.7-0.2,1.4-0.4,2.2-0.5
		c1.1-0.2,2.1-0.3,3-0.2c0.9,0,1.7-0.1,2.3-0.2c0.7-0.2,1.2-0.5,1.5-0.9c0.3-0.4,0.5-1.2,0.5-2.3c0-0.5-0.1-0.9-0.3-1.2
		c-0.2-0.3-0.5-0.6-0.8-0.7c-0.3-0.2-0.7-0.3-1.1-0.4c-0.4-0.1-0.8-0.1-1.2-0.1c-0.6,0-1.3,0.1-1.8,0.2c-0.6,0.1-1.1,0.3-1.6,0.6
		c-0.5,0.3-0.9,0.7-1.2,1.2c-0.3,0.5-0.5,1.1-0.6,1.8h-2C431.6,188.9,431.8,188.1,432.3,187.4 M441.4,192.6
		c-0.2,0.2-0.4,0.3-0.7,0.5c-0.3,0.1-0.6,0.2-1,0.3c-0.3,0.1-0.7,0.1-1,0.1c-0.4,0-0.7,0-0.9,0.1c-0.6,0-1.3,0.1-2.1,0.2
		c-0.8,0.1-1.5,0.2-2.1,0.5c-0.7,0.2-1.2,0.6-1.7,1.1s-0.7,1.2-0.7,2c0,0.5,0.1,1,0.3,1.4c0.2,0.4,0.5,0.7,0.8,0.9
		c0.3,0.2,0.7,0.4,1.2,0.5c0.5,0.1,0.9,0.2,1.4,0.2c1.6,0,3-0.4,4-1.3c1-0.9,1.7-2.1,2-3.5L441.4,192.6L441.4,192.6z"/>
	<path clip-path="url(#SVGID_2_)" fill="#5E6A72" d="M460.9,203.5c-0.4,1.1-1,1.9-1.6,2.6c-0.6,0.7-1.4,1.2-2.3,1.5
		c-0.9,0.3-2,0.5-3.3,0.5c-0.9,0-1.7-0.1-2.4-0.3c-0.8-0.2-1.4-0.5-2-0.9c-0.6-0.4-1-1-1.4-1.7c-0.3-0.7-0.5-1.5-0.5-2.5h2
		c0,0.7,0.1,1.3,0.4,1.8c0.3,0.5,0.6,0.8,1,1.1c0.4,0.3,0.9,0.5,1.5,0.6c0.6,0.1,1.1,0.2,1.7,0.2c0.9,0,1.6-0.1,2.2-0.4
		c0.6-0.3,1.2-0.6,1.6-1.1c0.4-0.5,0.8-1,1.1-1.6c0.3-0.6,0.5-1.2,0.7-1.8c0.2-0.6,0.4-1.2,0.5-1.8c0.1-0.6,0.3-1.1,0.4-1.6
		l-0.1-0.1c-0.6,1-1.4,1.7-2.4,2.3c-1.1,0.5-2.1,0.8-3.3,0.8c-1,0-1.9-0.2-2.6-0.5c-0.8-0.3-1.4-0.8-1.9-1.4
		c-0.5-0.6-0.9-1.3-1.2-2.1c-0.3-0.8-0.4-1.7-0.4-2.7c0-1.2,0.2-2.4,0.6-3.6c0.4-1.2,0.9-2.3,1.7-3.2c0.7-0.9,1.6-1.7,2.7-2.3
		c1.1-0.6,2.2-0.9,3.6-0.9c0.6,0,1.2,0.1,1.8,0.2c0.6,0.2,1.2,0.4,1.7,0.7c0.5,0.3,0.9,0.7,1.3,1.2c0.3,0.5,0.6,1.1,0.7,1.7h0.1
		l0.7-3.4h1.9l-3.2,14.9C461.7,201.2,461.4,202.5,460.9,203.5 M450.9,196.3c0.2,0.6,0.4,1.2,0.8,1.7c0.4,0.5,0.8,0.9,1.4,1.1
		c0.6,0.3,1.2,0.4,2,0.4c1,0,2-0.3,2.8-0.8c0.8-0.5,1.5-1.2,2.1-2c0.6-0.8,1-1.7,1.3-2.7c0.3-1,0.5-1.9,0.5-2.8c0-0.7-0.1-1.4-0.2-2
		c-0.2-0.6-0.4-1.2-0.8-1.6c-0.4-0.4-0.8-0.8-1.4-1.1c-0.6-0.3-1.3-0.4-2.1-0.4c-1,0-2,0.2-2.8,0.7c-0.8,0.5-1.5,1.1-2.1,1.9
		c-0.6,0.8-1,1.7-1.3,2.6c-0.3,1-0.4,1.9-0.4,2.8C450.6,195,450.7,195.6,450.9,196.3"/>
	<path clip-path="url(#SVGID_2_)" fill="#5E6A72" d="M472.8,184.9l-3.6,16.6h-2l3.5-16.6H472.8z M474.2,178.5l-0.7,3.3h-2l0.7-3.3
		H474.2z"/>
	<path clip-path="url(#SVGID_2_)" fill="#5E6A72" d="M488.7,188.4c-0.2-0.5-0.5-0.9-0.8-1.2c-0.4-0.3-0.8-0.6-1.3-0.8
		c-0.5-0.2-1.1-0.3-1.7-0.3c-1.2,0-2.3,0.3-3.2,0.8c-0.9,0.5-1.6,1.2-2.2,2.1c-0.6,0.9-1,1.8-1.3,2.9c-0.3,1.1-0.4,2.1-0.4,3.2
		c0,0.7,0.1,1.4,0.3,2c0.2,0.6,0.5,1.2,0.9,1.6c0.4,0.5,0.9,0.8,1.4,1.1c0.6,0.3,1.3,0.4,2.1,0.4c1.4,0,2.5-0.4,3.4-1.2
		c0.9-0.8,1.6-1.8,2-3h2c-0.6,1.9-1.6,3.4-2.8,4.4c-1.3,1-2.9,1.5-4.9,1.5c-2.1,0-3.6-0.6-4.7-1.9c-1.1-1.2-1.7-2.9-1.7-5
		c0-1.3,0.2-2.6,0.6-3.9c0.4-1.3,1-2.4,1.8-3.4c0.8-1,1.7-1.8,2.8-2.5c1.1-0.6,2.4-0.9,3.8-0.9c0.9,0,1.7,0.1,2.5,0.3
		c0.8,0.2,1.4,0.6,2,1c0.6,0.5,1,1.1,1.3,1.8c0.3,0.7,0.4,1.5,0.4,2.5h-2C489,189.5,488.9,188.9,488.7,188.4"/>
	<path clip-path="url(#SVGID_2_)" fill="#5E6A72" d="M511.1,178.5l-2,9.3h0.1c0.6-1,1.4-1.9,2.3-2.5c1-0.6,2.1-0.9,3.4-0.9
		c1.1,0,2,0.2,2.8,0.5c0.8,0.4,1.4,0.8,2,1.4c0.5,0.6,0.9,1.3,1.2,2.2c0.3,0.8,0.4,1.8,0.4,2.8c0,1.3-0.2,2.5-0.6,3.8
		c-0.4,1.3-0.9,2.4-1.7,3.4c-0.7,1-1.7,1.8-2.8,2.5c-1.1,0.6-2.4,0.9-3.8,0.9c-1.4,0-2.6-0.4-3.6-1.1c-1-0.7-1.7-1.8-1.9-3.2h-0.1
		l-0.8,3.8h-1.8l4.9-23H511.1z M515.2,199.5c0.9-0.6,1.6-1.3,2.2-2.1c0.6-0.9,1-1.8,1.3-2.9c0.3-1.1,0.5-2.1,0.5-3.1
		c0-1.5-0.4-2.8-1.1-3.7c-0.8-0.9-2-1.4-3.6-1.4c-1.1,0-2.1,0.3-2.9,0.9c-0.8,0.6-1.6,1.4-2.1,2.3c-0.6,0.9-1,1.9-1.3,2.9
		c-0.3,1.1-0.4,2.1-0.4,3c0,0.7,0.1,1.4,0.3,2s0.5,1.1,0.8,1.6c0.4,0.5,0.8,0.8,1.4,1.1c0.6,0.3,1.2,0.4,2,0.4
		C513.3,200.3,514.4,200,515.2,199.5"/>
	<path clip-path="url(#SVGID_2_)" fill="#5E6A72" d="M530,184.9l-3.6,16.6h-2l3.5-16.6H530z M531.4,178.5l-0.7,3.3h-2l0.7-3.3H531.4
		z"/>
	<path clip-path="url(#SVGID_2_)" fill="#5E6A72" d="M537.6,184.9l-0.8,3.8h0.1c0.6-1.2,1.4-2.2,2.4-2.9c0.9-0.8,2.2-1.1,3.6-1.1
		h0.5h0.3c0.1,0,0.2,0,0.3,0l-0.5,2c-0.2,0-0.4,0-0.6,0c-0.2,0-0.4,0-0.6,0c-0.9,0-1.7,0.2-2.4,0.5c-0.7,0.3-1.3,0.8-1.8,1.4
		c-0.5,0.6-0.9,1.2-1.3,1.9c-0.3,0.7-0.6,1.5-0.8,2.3l-1.9,8.7h-2l3.5-16.6H537.6z"/>
	<path clip-path="url(#SVGID_2_)" fill="#5E6A72" d="M556,201.5l0.7-3h-0.1c-0.7,1.1-1.5,1.9-2.5,2.5c-0.9,0.6-2.1,0.9-3.6,0.9
		c-2.1,0-3.7-0.6-4.7-1.9c-1-1.2-1.6-2.9-1.6-4.9c0-1.3,0.2-2.5,0.6-3.8c0.4-1.3,1-2.4,1.8-3.5c0.8-1,1.7-1.9,2.9-2.5
		c1.1-0.6,2.4-1,3.8-1c1.3,0,2.4,0.3,3.4,0.8c1,0.5,1.6,1.5,2,2.8h0.1l2-9.5h2l-4.9,23H556z M553.9,199.4c0.9-0.6,1.7-1.3,2.3-2.3
		c0.6-0.9,1.1-1.9,1.4-3c0.3-1.1,0.5-2.2,0.5-3.2c0-1.5-0.4-2.7-1.2-3.5c-0.8-0.9-1.9-1.3-3.4-1.3c-1.2,0-2.2,0.3-3.1,0.9
		c-0.9,0.6-1.6,1.3-2.2,2.2c-0.6,0.9-1,1.9-1.3,3c-0.3,1.1-0.5,2.1-0.5,3.1c0,1.4,0.4,2.6,1.1,3.5c0.7,0.9,1.9,1.4,3.4,1.4
		C551.9,200.3,553,200,553.9,199.4"/>
</g>
<g>
	<defs>
		<path id="SVGID_3_" d="M181.1,91.5c-15.1,2.5-52.2,11.6-86.2,14c1,2.6,32.1,26.4,70,29.2c45.1,3.3,65.5-11.7,61-28.2
			c-3.3-12.3-12.6-16.7-26.6-16.7C194,89.7,187.9,90.4,181.1,91.5"/>
	</defs>
	<clipPath id="SVGID_4_">
		<use xlink:href="#SVGID_3_"  overflow="visible"/>
	</clipPath>
	
		<linearGradient id="SVGID_5_" gradientUnits="userSpaceOnUse" x1="0" y1="340.2924" x2="1" y2="340.2924" gradientTransform="matrix(8.8894 50.3729 50.3729 -8.8894 -16984.3262 3107.7119)">
		<stop  offset="0" style="stop-color:#85085B"/>
		<stop  offset="1" style="stop-color:#CF1111"/>
	</linearGradient>
	<polygon clip-path="url(#SVGID_4_)" fill="url(#SVGID_5_)" points="226.3,66.5 238.6,136.4 99,161 86.7,91.2 	"/>
</g>
<g>
	<defs>
		<path id="SVGID_6_" d="M188.8,178.7c-35.9-0.8-42.5-10.6-54.3-1c-11.5,9.4-6.7,37.5,30.3,38.5c22.5,0.6,56.1-9.4,71.1-59.8
			C235.8,156.5,220.4,179.5,188.8,178.7"/>
	</defs>
	<clipPath id="SVGID_7_">
		<use xlink:href="#SVGID_6_"  overflow="visible"/>
	</clipPath>
	
		<linearGradient id="SVGID_8_" gradientUnits="userSpaceOnUse" x1="0" y1="340.2591" x2="1" y2="340.2591" gradientTransform="matrix(-128.909 37.4252 37.4252 128.909 -12502.2549 -43691.0469)">
		<stop  offset="0" style="stop-color:#FFC800"/>
		<stop  offset="0.2595" style="stop-color:#FE9104"/>
		<stop  offset="0.6142" style="stop-color:#FD4B09"/>
		<stop  offset="0.8704" style="stop-color:#FC1F0D"/>
		<stop  offset="1" style="stop-color:#FC0E0E"/>
	</linearGradient>
	<polygon clip-path="url(#SVGID_7_)" fill="url(#SVGID_8_)" points="252,212.2 131.7,247.1 106.8,161.2 227.1,126.3 	"/>
</g>
<g>
	<defs>
		<path id="SVGID_9_" d="M36.3,19c-5.9,1.5-15.9,13.1-4.4,28.8c10.7,14.6,27.2,23.4,53.5,21.6c29.6-2,35.9-7.7,35.9-7.7
			s-34.5,7.7-53-18.8C55.4,24.7,48,18.5,40.5,18.5C39.1,18.5,37.7,18.7,36.3,19"/>
	</defs>
	<clipPath id="SVGID_10_">
		<use xlink:href="#SVGID_9_"  overflow="visible"/>
	</clipPath>
	
		<linearGradient id="SVGID_11_" gradientUnits="userSpaceOnUse" x1="0" y1="340.3299" x2="1" y2="340.3299" gradientTransform="matrix(84.9407 64.1994 64.1994 -84.9407 -21831.4531 28912.3926)">
		<stop  offset="0" style="stop-color:#FFC800"/>
		<stop  offset="0.1758" style="stop-color:#FFC800"/>
		<stop  offset="1" style="stop-color:#FC0E0E"/>
	</linearGradient>
	<polygon clip-path="url(#SVGID_10_)" fill="url(#SVGID_11_)" points="57.1,-30 146.6,37.6 84.6,119.7 -4.9,52 	"/>
</g>
<g>
	<defs>
		<path id="SVGID_12_" d="M278.8,32.1c-9.4,6.8-3.5,24.2-3.5,24.2c3.4-7.9,14.9-21.6,26.7-20.2c-1.9-3.4-8.3-6.5-14.6-6.5
			C284.4,29.6,281.3,30.3,278.8,32.1"/>
	</defs>
	<clipPath id="SVGID_13_">
		<use xlink:href="#SVGID_12_"  overflow="visible"/>
	</clipPath>
	
		<linearGradient id="SVGID_14_" gradientUnits="userSpaceOnUse" x1="0" y1="340.277" x2="1" y2="340.277" gradientTransform="matrix(28.5152 0 0 -28.5152 273.4955 9745.9961)">
		<stop  offset="0" style="stop-color:#85085B"/>
		<stop  offset="1" style="stop-color:#CF1111"/>
	</linearGradient>
	<rect x="269.4" y="29.6" clip-path="url(#SVGID_13_)" fill="url(#SVGID_14_)" width="32.6" height="26.7"/>
</g>
<g>
	<defs>
		<path id="SVGID_15_" d="M123.7,231.1c31.3,10.2,53.3-3,70.6-17c-16.1,7.8-32.1,12.3-52.1,5.5c-9.8-3.3-16.2-10-21-12.3
			c-1.8-0.9-3.5-1.2-5.1-1.2C105.6,206.1,102,224,123.7,231.1"/>
	</defs>
	<clipPath id="SVGID_16_">
		<use xlink:href="#SVGID_15_"  overflow="visible"/>
	</clipPath>
	
		<linearGradient id="SVGID_17_" gradientUnits="userSpaceOnUse" x1="0" y1="340.2389" x2="1" y2="340.2389" gradientTransform="matrix(86.5755 0 0 -86.5755 107.7809 29680.0703)">
		<stop  offset="0" style="stop-color:#85085B"/>
		<stop  offset="1" style="stop-color:#CF1111"/>
	</linearGradient>
	<rect x="102" y="206.1" clip-path="url(#SVGID_16_)" fill="url(#SVGID_17_)" width="92.4" height="35.2"/>
</g>
<g>
	<defs>
		<path id="SVGID_18_" d="M180.7,234.1c-10.7,15-9.5,29.8,0.1,35.2c9.4,5.3,18.8-4.9,15.4-14.5c-5.7-16-4.9-27.1,5-38.5
			C201.1,216.3,186.6,225.8,180.7,234.1"/>
	</defs>
	<clipPath id="SVGID_19_">
		<use xlink:href="#SVGID_18_"  overflow="visible"/>
	</clipPath>
	
		<linearGradient id="SVGID_20_" gradientUnits="userSpaceOnUse" x1="0" y1="340.2975" x2="1" y2="340.2975" gradientTransform="matrix(-8.8888 -112.5906 -112.5906 8.8888 38506.7852 -2691.635)">
		<stop  offset="0" style="stop-color:#FFC800"/>
		<stop  offset="0.3691" style="stop-color:#FFC800"/>
		<stop  offset="1" style="stop-color:#FC0E0E"/>
	</linearGradient>
	<polygon clip-path="url(#SVGID_19_)" fill="url(#SVGID_20_)" points="170.1,277 165.4,216.6 201,213.8 205.7,274.2 	"/>
</g>
<g>
	<defs>
		<path id="SVGID_21_" d="M142.4,272.4c-7.5,17.4-9.1,41.3,1.9,44.1c12.5,3.2,14.8-10,14.8-28c0-31,8.6-47.3,20-59.4
			C179.1,229.1,157.2,238.1,142.4,272.4"/>
	</defs>
	<clipPath id="SVGID_22_">
		<use xlink:href="#SVGID_21_"  overflow="visible"/>
	</clipPath>
	
		<linearGradient id="SVGID_23_" gradientUnits="userSpaceOnUse" x1="0" y1="340.2639" x2="1" y2="340.2639" gradientTransform="matrix(41.4821 -141.237 -141.237 -41.4821 48191.7344 14465.2344)">
		<stop  offset="0" style="stop-color:#FFC800"/>
		<stop  offset="0.1758" style="stop-color:#FFC800"/>
		<stop  offset="1" style="stop-color:#FC0E0E"/>
	</linearGradient>
	<polygon clip-path="url(#SVGID_22_)" fill="url(#SVGID_23_)" points="108.8,312.5 136.9,216.7 203.6,236.3 175.5,332.1 	"/>
</g>
<g>
	<defs>
		<path id="SVGID_24_" d="M140.6,242.9c-11.9,1.8-16.9,3-25.7-2.5c-7.7-4.8-16,9.2-3.7,15c20.5,9.5,43.6-12.8,47-16.6
			c0.8-0.9,0.7-1.2,0.2-1.2C156.3,237.6,147.1,242,140.6,242.9"/>
	</defs>
	<clipPath id="SVGID_25_">
		<use xlink:href="#SVGID_24_"  overflow="visible"/>
	</clipPath>
	
		<linearGradient id="SVGID_26_" gradientUnits="userSpaceOnUse" x1="0" y1="340.2184" x2="1" y2="340.2184" gradientTransform="matrix(82.9637 -44.4448 -44.4448 -82.9637 15196.708 28504.6113)">
		<stop  offset="0" style="stop-color:#FFC800"/>
		<stop  offset="0.1758" style="stop-color:#FFC800"/>
		<stop  offset="1" style="stop-color:#FC0E0E"/>
	</linearGradient>
	<polygon clip-path="url(#SVGID_25_)" fill="url(#SVGID_26_)" points="86.8,242.2 145.6,210.7 171.2,258.4 112.4,290 	"/>
</g>
<g>
	<defs>
		<path id="SVGID_27_" d="M255.6,90.3C219.5,27.6,146.8,68.6,94.2,75.2c-52.7,6.6-64.9-15.6-64.9-15.6c3.6,15.4,28.9,46.7,71.2,41.1
			c58.5-7.8,112.9-30.3,133.7,0.4c25.2,37.3-2.4,82.5-24,108.4c0,0,0,0,0,0c10.9-6.4,19.1-15.8,29.6-23.1
			c55.3-44.1,55.9-78.8,38.4-110.9c-8.3-15.2-10.4-25.8-8.9-33c-0.2-4.2,1.9-8.6,4.6-12.7C231.1,40.9,251,75.2,255.6,90.3"/>
	</defs>
	<clipPath id="SVGID_28_">
		<use xlink:href="#SVGID_27_"  overflow="visible"/>
	</clipPath>
	
		<linearGradient id="SVGID_29_" gradientUnits="userSpaceOnUse" x1="0" y1="339.9911" x2="1" y2="339.9911" gradientTransform="matrix(129.8616 94.6908 94.6908 -129.8616 -32064.4336 44246.2969)">
		<stop  offset="0" style="stop-color:#FFC800"/>
		<stop  offset="0.1758" style="stop-color:#FFC800"/>
		<stop  offset="1" style="stop-color:#FC0E0E"/>
	</linearGradient>
	<polygon clip-path="url(#SVGID_28_)" fill="url(#SVGID_29_)" points="121.8,-99.2 382.3,90.7 203.3,336.3 -57.3,146.4 	"/>
</g>
<g>
	<defs>
		<path id="SVGID_30_" d="M203.6,222.3c-19,23.3,15.4,43.2,25.8,16.6c4.2-10.7-1.3-26.8,3.3-40.6C216.4,210.6,209.6,215,203.6,222.3
			"/>
	</defs>
	<clipPath id="SVGID_31_">
		<use xlink:href="#SVGID_30_"  overflow="visible"/>
	</clipPath>
	
		<linearGradient id="SVGID_32_" gradientUnits="userSpaceOnUse" x1="0" y1="340.0762" x2="1" y2="340.0762" gradientTransform="matrix(34.6393 0 0 -34.6393 197.9886 12011.9443)">
		<stop  offset="0" style="stop-color:#85085B"/>
		<stop  offset="1" style="stop-color:#CF1111"/>
	</linearGradient>
	<rect x="184.6" y="198.3" clip-path="url(#SVGID_31_)" fill="url(#SVGID_32_)" width="48.9" height="67.2"/>
</g>
<g>
	<defs>
		<path id="SVGID_33_" d="M230.6,29.9c-1.8,3.6-0.4,7.9,3.2,9.7c3.6,1.8,7.9,0.4,9.7-3.2c1.8-3.6,0.4-7.9-3.2-9.7
			c-1-0.5-2.2-0.8-3.3-0.8C234.4,26,231.9,27.4,230.6,29.9"/>
	</defs>
	<clipPath id="SVGID_34_">
		<use xlink:href="#SVGID_33_"  overflow="visible"/>
	</clipPath>
	
		<radialGradient id="SVGID_35_" cx="0" cy="340.277" r="1" gradientTransform="matrix(-4.7918 9.4406 -9.4406 -4.7918 3447.6885 1659.8916)" gradientUnits="userSpaceOnUse">
		<stop  offset="0" style="stop-color:#CF1111"/>
		<stop  offset="1" style="stop-color:#85085B"/>
	</radialGradient>
	<polygon clip-path="url(#SVGID_34_)" fill="url(#SVGID_35_)" points="232.2,19.3 222.6,38.3 242,48.1 251.6,29.1 	"/>
</g>
<g>
	<defs>
		<path id="SVGID_36_" d="M246.8,18.7c-1.3,2.5-0.3,5.6,2.3,6.9c2.5,1.3,5.6,0.3,6.9-2.3c1.3-2.5,0.3-5.6-2.3-6.9
			c-0.7-0.4-1.5-0.6-2.3-0.6C249.5,15.9,247.7,16.9,246.8,18.7"/>
	</defs>
	<clipPath id="SVGID_37_">
		<use xlink:href="#SVGID_36_"  overflow="visible"/>
	</clipPath>
	
		<radialGradient id="SVGID_38_" cx="0" cy="340.277" r="1" gradientTransform="matrix(-3.4022 6.7029 -6.7029 -3.4022 2530.958 1176.0046)" gradientUnits="userSpaceOnUse">
		<stop  offset="0" style="stop-color:#CF1111"/>
		<stop  offset="1" style="stop-color:#85085B"/>
	</radialGradient>
	<polygon clip-path="url(#SVGID_37_)" fill="url(#SVGID_38_)" points="247.9,11.1 241.1,24.6 254.8,31.6 261.7,18.1 	"/>
</g>
<g>
	<defs>
		<path id="SVGID_39_" d="M9.2,63.5c0,4,3.2,7.2,7.2,7.2c4,0,7.2-3.2,7.2-7.2c0-4-3.2-7.2-7.2-7.2C12.5,56.3,9.2,59.5,9.2,63.5"/>
	</defs>
	<clipPath id="SVGID_40_">
		<use xlink:href="#SVGID_39_"  overflow="visible"/>
	</clipPath>
	
		<radialGradient id="SVGID_41_" cx="0" cy="340.277" r="1" gradientTransform="matrix(10.5853 0 0 -10.5853 13.863 3662.0955)" gradientUnits="userSpaceOnUse">
		<stop  offset="0" style="stop-color:#CF1111"/>
		<stop  offset="1" style="stop-color:#85085B"/>
	</radialGradient>
	<rect x="9.2" y="56.3" clip-path="url(#SVGID_40_)" fill="url(#SVGID_41_)" width="14.5" height="14.5"/>
</g>
<g>
	<defs>
		<circle id="SVGID_42_" cx="16.5" cy="7.2" r="7.2"/>
	</defs>
	<clipPath id="SVGID_43_">
		<use xlink:href="#SVGID_42_"  overflow="visible"/>
	</clipPath>
	
		<radialGradient id="SVGID_44_" cx="0" cy="340.277" r="1" gradientTransform="matrix(10.5859 0 0 -10.5859 13.863 3606.0237)" gradientUnits="userSpaceOnUse">
		<stop  offset="0" style="stop-color:#CF1111"/>
		<stop  offset="1" style="stop-color:#85085B"/>
	</radialGradient>
	<rect x="9.2" y="0" clip-path="url(#SVGID_43_)" fill="url(#SVGID_44_)" width="14.5" height="14.5"/>
</g>
<g>
	<defs>
		<path id="SVGID_45_" d="M0,35.4c0,5.1,4.1,9.2,9.2,9.2c5.1,0,9.2-4.1,9.2-9.2c0-5.1-4.1-9.2-9.2-9.2C4.1,26.2,0,30.3,0,35.4"/>
	</defs>
	<clipPath id="SVGID_46_">
		<use xlink:href="#SVGID_45_"  overflow="visible"/>
	</clipPath>
	
		<radialGradient id="SVGID_47_" cx="0" cy="340.277" r="1" gradientTransform="matrix(13.4789 0 0 -13.4789 5.9104 4617.6958)" gradientUnits="userSpaceOnUse">
		<stop  offset="0" style="stop-color:#CF1111"/>
		<stop  offset="1" style="stop-color:#85085B"/>
	</radialGradient>
	<rect y="26.2" clip-path="url(#SVGID_46_)" fill="url(#SVGID_47_)" width="18.4" height="18.4"/>
</g>
<g>
	<defs>
		<path id="SVGID_48_" d="M21.7,82.7c0,2.7,2.2,5,5,5c2.7,0,5-2.2,5-5c0-2.8-2.2-5-5-5C23.9,77.7,21.7,79.9,21.7,82.7"/>
	</defs>
	<clipPath id="SVGID_49_">
		<use xlink:href="#SVGID_48_"  overflow="visible"/>
	</clipPath>
	
		<radialGradient id="SVGID_50_" cx="0" cy="340.277" r="1" gradientTransform="matrix(7.274 0 0 -7.274 24.8553 2555.5586)" gradientUnits="userSpaceOnUse">
		<stop  offset="0" style="stop-color:#CF1111"/>
		<stop  offset="1" style="stop-color:#85085B"/>
	</radialGradient>
	<rect x="21.7" y="77.7" clip-path="url(#SVGID_49_)" fill="url(#SVGID_50_)" width="10" height="10"/>
</g>
<g>
	<defs>
		<path id="SVGID_51_" d="M33.7,96.4c0,2.4,1.9,4.3,4.3,4.3c2.4,0,4.3-1.9,4.3-4.3c0-2.4-1.9-4.3-4.3-4.3
			C35.6,92.2,33.7,94.1,33.7,96.4"/>
	</defs>
	<clipPath id="SVGID_52_">
		<use xlink:href="#SVGID_51_"  overflow="visible"/>
	</clipPath>
	
		<radialGradient id="SVGID_53_" cx="0" cy="340.277" r="1" gradientTransform="matrix(6.2664 0 0 -6.2664 36.4192 2226.7781)" gradientUnits="userSpaceOnUse">
		<stop  offset="0" style="stop-color:#CF1111"/>
		<stop  offset="1" style="stop-color:#85085B"/>
	</radialGradient>
	<rect x="33.7" y="92.2" clip-path="url(#SVGID_52_)" fill="url(#SVGID_53_)" width="8.6" height="8.6"/>
</g>
<g>
	<defs>
		<path id="SVGID_54_" d="M49.1,106.7c0,2.4,1.9,4.3,4.3,4.3s4.3-1.9,4.3-4.3c0-2.4-1.9-4.3-4.3-4.3S49.1,104.3,49.1,106.7"/>
	</defs>
	<clipPath id="SVGID_55_">
		<use xlink:href="#SVGID_54_"  overflow="visible"/>
	</clipPath>
	
		<radialGradient id="SVGID_56_" cx="0" cy="340.277" r="1" gradientTransform="matrix(6.267 0 0 -6.267 51.8909 2237.1838)" gradientUnits="userSpaceOnUse">
		<stop  offset="0" style="stop-color:#CF1111"/>
		<stop  offset="1" style="stop-color:#85085B"/>
	</radialGradient>
	<rect x="49.1" y="102.4" clip-path="url(#SVGID_55_)" fill="url(#SVGID_56_)" width="8.6" height="8.6"/>
</g>
<g>
	<defs>
		<path id="SVGID_57_" d="M69.7,110.9c0,2.4,1.9,4.3,4.3,4.3c2.4,0,4.3-1.9,4.3-4.3c0-2.4-1.9-4.3-4.3-4.3
			C71.6,106.7,69.7,108.6,69.7,110.9"/>
	</defs>
	<clipPath id="SVGID_58_">
		<use xlink:href="#SVGID_57_"  overflow="visible"/>
	</clipPath>
	
		<radialGradient id="SVGID_59_" cx="0" cy="340.277" r="1" gradientTransform="matrix(6.2671 0 0 -6.2671 72.4176 2241.5078)" gradientUnits="userSpaceOnUse">
		<stop  offset="0" style="stop-color:#CF1111"/>
		<stop  offset="1" style="stop-color:#85085B"/>
	</radialGradient>
	<rect x="69.7" y="106.7" clip-path="url(#SVGID_58_)" fill="url(#SVGID_59_)" width="8.6" height="8.6"/>
</g>
<g>
	<defs>
		<path id="SVGID_60_" d="M101.1,306.7c-0.7,5.3,3.1,10.2,8.5,10.9c5.3,0.7,10.2-3.1,10.9-8.5c0.7-5.4-3.1-10.2-8.5-10.9
			c-0.4-0.1-0.8-0.1-1.2-0.1C105.9,298.2,101.7,301.8,101.1,306.7"/>
	</defs>
	<clipPath id="SVGID_61_">
		<use xlink:href="#SVGID_60_"  overflow="visible"/>
	</clipPath>
	
		<radialGradient id="SVGID_62_" cx="0" cy="340.277" r="1" gradientTransform="matrix(14.1509 1.7944 1.7944 -14.1509 -502.6817 5118.2192)" gradientUnits="userSpaceOnUse">
		<stop  offset="0" style="stop-color:#CF1111"/>
		<stop  offset="1" style="stop-color:#85085B"/>
	</radialGradient>
	<polygon clip-path="url(#SVGID_61_)" fill="url(#SVGID_62_)" points="100.8,295.6 123.7,298.5 120.8,320.9 97.9,318 	"/>
</g>
<g>
	<defs>
		<path id="SVGID_63_" d="M113.8,283.9c-0.5,3.7,2.1,7,5.8,7.5c3.7,0.5,7-2.1,7.5-5.8c0.5-3.7-2.1-7-5.8-7.5c-0.3,0-0.6-0.1-0.8-0.1
			C117.2,278.1,114.3,280.5,113.8,283.9"/>
	</defs>
	<clipPath id="SVGID_64_">
		<use xlink:href="#SVGID_63_"  overflow="visible"/>
	</clipPath>
	
		<radialGradient id="SVGID_65_" cx="0" cy="340.277" r="1" gradientTransform="matrix(9.7252 1.2332 1.2332 -9.7252 -301.1195 3590.6587)" gradientUnits="userSpaceOnUse">
		<stop  offset="0" style="stop-color:#CF1111"/>
		<stop  offset="1" style="stop-color:#85085B"/>
	</radialGradient>
	<polygon clip-path="url(#SVGID_64_)" fill="url(#SVGID_65_)" points="113.6,276.3 129.3,278.3 127.4,293.7 111.7,291.7 	"/>
</g>
<g>
	<defs>
		<path id="SVGID_66_" d="M98.7,332.7c-0.5,3.7,2.1,7,5.8,7.5c0.3,0,0.6,0.1,0.9,0.1h0c3.3,0,6.2-2.5,6.6-5.9c0.5-3.7-2.1-7-5.8-7.5
			c-0.3,0-0.6-0.1-0.9-0.1C102,326.9,99.1,329.3,98.7,332.7"/>
	</defs>
	<clipPath id="SVGID_67_">
		<use xlink:href="#SVGID_66_"  overflow="visible"/>
	</clipPath>
	
		<radialGradient id="SVGID_68_" cx="0" cy="340.277" r="1" gradientTransform="matrix(9.7235 1.233 1.233 -9.7235 -316.2328 3638.8669)" gradientUnits="userSpaceOnUse">
		<stop  offset="0" style="stop-color:#CF1111"/>
		<stop  offset="1" style="stop-color:#85085B"/>
	</radialGradient>
	<polygon clip-path="url(#SVGID_67_)" fill="url(#SVGID_68_)" points="98.4,325.1 114.1,327.1 112.2,342.1 96.5,340.1 	"/>
</g>
<g>
	<defs>
		<path id="SVGID_69_" d="M127.1,267.2c-0.4,3.2,1.8,6.1,5,6.5c3.2,0.4,6.1-1.8,6.5-5c0.4-3.2-1.8-6.1-5-6.5c-0.2,0-0.5,0-0.7,0
			C130,262.2,127.5,264.3,127.1,267.2"/>
	</defs>
	<clipPath id="SVGID_70_">
		<use xlink:href="#SVGID_69_"  overflow="visible"/>
	</clipPath>
	
		<radialGradient id="SVGID_71_" cx="0" cy="340.277" r="1" gradientTransform="matrix(8.3775 1.0623 1.0623 -8.3775 -230.3476 3115.6812)" gradientUnits="userSpaceOnUse">
		<stop  offset="0" style="stop-color:#CF1111"/>
		<stop  offset="1" style="stop-color:#85085B"/>
	</radialGradient>
	<polygon clip-path="url(#SVGID_70_)" fill="url(#SVGID_71_)" points="126.9,260.6 140.5,262.3 138.8,275.6 125.2,273.9 	"/>
</g>
<g>
	<defs>
		<path id="SVGID_72_" d="M263.5,14.5c-1.3,2.5-0.3,5.6,2.2,6.8c2.5,1.3,5.6,0.3,6.8-2.2c1.3-2.5,0.3-5.6-2.2-6.8
			c-0.7-0.4-1.5-0.6-2.3-0.6C266.2,11.7,264.4,12.7,263.5,14.5"/>
	</defs>
	<clipPath id="SVGID_73_">
		<use xlink:href="#SVGID_72_"  overflow="visible"/>
	</clipPath>
	
		<radialGradient id="SVGID_74_" cx="0" cy="340.277" r="1" gradientTransform="matrix(-3.3575 6.6149 -6.6149 -3.3575 2517.6426 1156.5675)" gradientUnits="userSpaceOnUse">
		<stop  offset="0" style="stop-color:#CF1111"/>
		<stop  offset="1" style="stop-color:#85085B"/>
	</radialGradient>
	<polygon clip-path="url(#SVGID_73_)" fill="url(#SVGID_74_)" points="264.6,7 257.8,20.3 271.4,27.2 278.2,13.9 	"/>
</g>
</svg>
